<?xml version="1.0" encoding="iso-8859-1"?>
<!-- Generator: Adobe Illustrator 28.4.1, SVG Export Plug-In . SVG Version: 6.00 Build 0)  -->
<svg version="1.1" xmlns="http://www.w3.org/2000/svg" xmlns:xlink="http://www.w3.org/1999/xlink" x="0px" y="0px"
	 viewBox="0 0 300 300" style="enable-background:new 0 0 300 300;" xml:space="preserve">
<g id="floor">
</g>
<g id="Legs">
</g>
<g id="island_small">
</g>
<g id="smile">
</g>
<g id="Eyes">
</g>
<g id="Shoes">
</g>
<g id="big_island">
</g>
<g id="right_arm">
</g>
<g id="island_right">
</g>
<g id="left_arm">
	<g>
		<ellipse style="fill:#6F1F46;" cx="150.133" cy="269.476" rx="96.973" ry="11.032"/>
		
			<line style="fill:none;stroke:#FDFBD2;stroke-width:0.9986;stroke-miterlimit:10;" x1="142.737" y1="212.321" x2="142.737" y2="229.11"/>
		
			<path style="fill:#568C6D;stroke:#6F1F46;stroke-width:1.6643;stroke-linecap:round;stroke-linejoin:round;stroke-miterlimit:10;" d="
			M118.543,247.891l-0.326-41.539h26.022v41.274c0,6.657,0,12.981-0.021,19.482c-0.005,1.491-0.239,3.161-1.393,4.105
			c-0.886,0.725-2.118,1.474-3.262,1.525c-4.401,0.196-8.799-0.047-13.204-0.078c-9.747-0.069-17.735,0.264-28.554-0.545
			c-1.683-0.126-3.388-1.198-4.476-2.488c-1.316-1.559-1.315-4.138-1.246-6.178c0.125-3.695,0.256-7.435,1.288-10.985
			s3.076-6.948,6.245-8.852c1.666-1.001,3.583-1.552,5.519-1.72c4.077-0.354,8.277,1.033,11.342,3.745
			c3.065,2.712,4.953,6.712,5.098,10.802"/>
		
			<path style="fill:#5A7EAE;stroke:#6F1F46;stroke-width:1.7141;stroke-linecap:round;stroke-linejoin:round;stroke-miterlimit:10;" d="
			M181.995,247.891l0.326-41.539h-26.022v41.274c0,6.657,0,12.981,0.021,19.482c0.005,1.491,0.239,3.161,1.393,4.105
			c0.886,0.725,2.118,1.474,3.262,1.525c4.401,0.196,8.799-0.047,13.204-0.078c9.747-0.069,17.735,0.264,28.554-0.545
			c1.683-0.126,3.388-1.198,4.476-2.488c1.316-1.559,1.315-4.138,1.246-6.178c-0.125-3.695-0.256-7.435-1.288-10.985
			s-3.076-6.948-6.245-8.852c-1.666-1.001-3.583-1.552-5.519-1.72c-4.077-0.354-8.277,1.033-11.342,3.745
			c-3.065,2.712-4.953,6.712-5.098,10.802"/>
		<path style="fill:none;stroke:#FDFBD2;stroke-width:0.9986;stroke-miterlimit:10;" d="M139.741,206.995"/>
		<path style="fill:none;stroke:#FDFBD2;stroke-width:0.9986;stroke-miterlimit:10;" d="M177.687,206.995"/>
		<circle style="fill:#5A7EAE;stroke:#6F1F46;stroke-width:1.6643;stroke-miterlimit:10;" cx="150.111" cy="130.75" r="85.911"/>
		<g>
			<path style="fill:#FDFBD2;" d="M151.99,46.112c46.356-1.055,84.102,39.939,83.152,85.592
				c0.01,45.887-39.598,84.818-85.485,83.809c44.907-0.116,84.15-38.816,83.825-83.828C234.526,86.613,197.564,46.379,151.99,46.112
				L151.99,46.112z"/>
		</g>
		<path style="fill:#568C6D;stroke:#6F1F46;stroke-width:1.6643;stroke-miterlimit:10;" d="M208.272,188.624"/>
		<g>
			<path style="fill:none;" d="M124.676,87.831"/>
		</g>
		<path style="fill:#568C6D;stroke:#6F1F46;stroke-width:1.6643;stroke-miterlimit:10;" d="M129.58,166.576
			c-0.997,0.765-1.625,1.808-2.014,2.99c-1.552,4.721,1.434,9.744,6.284,10.827c0.541,0.121,1.082,0.24,1.62,0.363
			c2.846,0.653,5.753,1.499,7.994,3.371c2.241,1.872,3.653,5.019,2.699,7.779c-0.772,2.234-2.963,4.036-2.823,6.395
			c0.151,2.549,2.893,4.043,5.315,4.853c8.022,2.682,26.267,6.468,31.035-3.517c1.907-3.994,0.102-8.768-2.306-12.481
			c-2.408-3.713-5.496-7.193-6.41-11.523c-1.005-4.764,0.811-9.606,2.309-14.239c1.498-4.633,2.661-9.859,0.495-14.219
			c-2.368-4.767-8.585-7.016-13.632-5.328c-5.048,1.688-8.58,6.821-8.885,12.135c-0.218,3.797,0.82,8.223-1.833,10.948
			c-2.416,2.481-6.47,1.975-9.838,1.167C136.223,165.289,132.322,164.462,129.58,166.576z"/>
		<g>
			<path style="fill:#FDFBD2;" d="M178.709,199.687c1.853-4.532-1.367-8.778-3.926-12.313c-2.752-3.705-6.119-7.594-6.449-12.495
				c-0.567-7.19,3.299-13.577,5.042-20.279c0.614-2.188,0.563-4.606-0.163-6.713c1.216,2.026,1.283,4.559,0.947,6.863
				c-1.112,6.671-4.752,13.252-4.185,19.978C170.409,183.431,183.284,190.613,178.709,199.687L178.709,199.687z"/>
		</g>
		
			<path style="fill:none;stroke:#6F1F46;stroke-width:1.6643;stroke-linecap:round;stroke-linejoin:round;stroke-miterlimit:10;" d="
			M151.09,174.882c-0.09-0.562,0.083-1.17,0.49-1.568c0.407-0.398,1.049-0.553,1.577-0.343c0.529,0.211,0.893,0.799,0.803,1.361
			c0.204-0.955,1.229-1.654,2.192-1.497s1.713,1.145,1.604,2.116"/>
		
			<path style="fill:none;stroke:#6F1F46;stroke-width:1.6643;stroke-linecap:round;stroke-linejoin:round;stroke-miterlimit:10;" d="
			M162.518,194.937c0.586,0.684,1.173,1.368,1.759,2.052"/>
		
			<path style="fill:none;stroke:#6F1F46;stroke-width:1.6643;stroke-linecap:round;stroke-linejoin:round;stroke-miterlimit:10;" d="
			M164.016,192.773c0.586,0.684,1.173,1.368,1.759,2.052"/>
		
			<path style="fill:none;stroke:#6F1F46;stroke-width:1.6643;stroke-linecap:round;stroke-linejoin:round;stroke-miterlimit:10;" d="
			M173.539,125.458c0.79,1.55,2.53,2.564,4.268,2.488c1.738-0.076,3.383-1.238,4.035-2.851"/>
		<circle style="fill:#FFFFFF;stroke:#6F1F46;stroke-width:1.3314;stroke-miterlimit:10;" cx="186.23" cy="110.07" r="10.671"/>
		<circle style="fill:#6F1F46;" cx="187.246" cy="113.616" r="6.591"/>
		<circle style="fill:#FFFFFF;" cx="187.648" cy="113.14" r="0.997"/>
		<circle style="fill:#FFFFFF;" cx="189.96" cy="116.344" r="1.551"/>
		<circle style="fill:#FFFFFF;" cx="186.126" cy="116.217" r="1.098"/>
		<path style="fill:#5A7EAE;stroke:#6F1F46;stroke-width:1.3314;stroke-miterlimit:10;" d="M196.885,109.921h-21.344
			c0.047-5.853,4.809-10.586,10.67-10.586C192.076,99.335,196.838,104.068,196.885,109.921z"/>
		<circle style="fill:#FFFFFF;stroke:#6F1F46;stroke-width:1.3314;stroke-miterlimit:10;" cx="168.654" cy="110.07" r="10.671"/>
		<circle style="fill:#6F1F46;" cx="169.111" cy="113.616" r="6.591"/>
		<circle style="fill:#FFFFFF;" cx="169.512" cy="113.14" r="0.997"/>
		<circle style="fill:#FFFFFF;" cx="171.825" cy="116.344" r="1.551"/>
		<circle style="fill:#FFFFFF;" cx="167.991" cy="116.217" r="1.098"/>
		<path style="fill:#5A7EAE;stroke:#6F1F46;stroke-width:1.3314;stroke-miterlimit:10;" d="M179.335,109.921h-21.344
			c0.047-5.853,4.809-10.586,10.67-10.586C174.526,99.335,179.288,104.068,179.335,109.921z"/>
		<path style="fill:#5A7EAE;stroke:#6F1F46;stroke-width:1.2702;stroke-miterlimit:10;" d="M118.216,237.5"/>
		<path style="fill:#568C6D;stroke:#6F1F46;stroke-width:1.6643;stroke-miterlimit:10;" d="M88.219,190.58
			c-33.55-33.55-33.55-87.947,0-121.497c7.496-7.496,16.444-13.936,26.413-17.544c6.016-2.178,12.821-3.355,18.727-0.892
			c5.905,2.463,10.135,9.631,7.545,15.481c-3.011,6.802-13.32,9.131-14.253,16.511c-0.48,3.797,1.869,7.285,3.61,10.694
			c1.74,3.409,2.792,7.952,0.19,10.759c-3.813,4.114-10.957,0.419-16.172,2.484c-5.399,2.138-6.488,9.344-5.633,15.087
			c1.169,7.853,4.333,15.245,6.745,22.81c2.412,7.565,4.083,15.703,2.177,23.411C114.509,180.25,100.856,192.19,88.219,190.58z"/>
		
			<path style="fill:none;stroke:#6F1F46;stroke-width:1.6643;stroke-linecap:round;stroke-linejoin:round;stroke-miterlimit:10;" d="
			M83.931,96.169c-0.09-0.562,0.083-1.17,0.49-1.568c0.407-0.398,1.049-0.553,1.577-0.343c0.529,0.211,0.893,0.799,0.803,1.361
			c0.204-0.955,1.229-1.654,2.192-1.497c0.964,0.157,1.713,1.145,1.604,2.116"/>
		
			<path style="fill:none;stroke:#6F1F46;stroke-width:1.6643;stroke-linecap:round;stroke-linejoin:round;stroke-miterlimit:10;" d="
			M114.171,76.915c-0.09-0.562,0.083-1.17,0.49-1.568c0.407-0.398,1.049-0.553,1.577-0.343c0.529,0.211,0.893,0.799,0.803,1.361
			c0.204-0.955,1.229-1.654,2.192-1.497c0.964,0.157,1.713,1.145,1.604,2.116"/>
		
			<path style="fill:none;stroke:#6F1F46;stroke-width:1.6643;stroke-linecap:round;stroke-linejoin:round;stroke-miterlimit:10;" d="
			M91.92,164.248c-0.09-0.562,0.083-1.17,0.49-1.568c0.407-0.398,1.049-0.553,1.577-0.343c0.529,0.211,0.893,0.799,0.803,1.361
			c0.204-0.955,1.229-1.654,2.192-1.497c0.964,0.157,1.713,1.145,1.604,2.116"/>
		
			<path style="fill:none;stroke:#6F1F46;stroke-width:1.6643;stroke-linecap:round;stroke-linejoin:round;stroke-miterlimit:10;" d="
			M84.881,129.721c0.586,0.684,1.173,1.368,1.759,2.052"/>
		
			<path style="fill:none;stroke:#6F1F46;stroke-width:1.6643;stroke-linecap:round;stroke-linejoin:round;stroke-miterlimit:10;" d="
			M86.379,127.557c0.586,0.684,1.173,1.368,1.759,2.052"/>
		<g>
			<path style="fill:#FDFBD2;" d="M88.558,189.654c12.821-0.798,23.742-10.974,26.734-23.235c1.218-6.141-0.022-12.599-1.372-18.672
				c-1.11-4.643-2.5-9.235-4.05-13.757c-3.218-8.406-6.93-24.75,4.581-28.763c-9.971,4.276-7.198,17.936-4.093,26.034
				c2.001,5.263,3.817,10.629,5.141,16.109c1.463,6.325,2.689,12.896,1.338,19.403C113.669,179.323,101.57,190.229,88.558,189.654
				L88.558,189.654z"/>
		</g>
		<path style="fill:#5A7EAE;" d="M257.184,111.685c-0.021-1.188-0.571-2.296-1.132-3.344c-0.588-1.098-1.208-2.198-1.515-3.406
			c-0.307-1.207-0.265-2.562,0.41-3.609c0.666-1.033,1.894-1.639,3.123-1.686c1.229-0.047,2.444,0.421,3.425,1.162
			c1.493,1.127,2.461,2.844,2.974,4.643s0.606,3.689,0.616,5.559c1.446-1.562,3.527-2.519,5.654-2.599
			c1.336-0.05,2.743,0.266,3.735,1.163c0.769,0.697,1.221,1.674,1.574,2.649c0.628,1.734,1.013,3.615,0.659,5.426
			c-0.353,1.81-1.56,3.531-3.312,4.109c-1.752,0.577-3.968-0.3-4.531-2.056c-0.229-0.714-0.227-1.575-0.797-2.062
			c-0.806-0.69-2.03-0.094-2.9,0.515c-1.722,1.207-3.483,2.465-5.526,2.964c-1.863,0.455-5.639,0.232-5.09-2.468
			C255.051,116.206,257.229,114.256,257.184,111.685z"/>
		<path style="fill:#5A7EAE;" d="M281.43,114.894c1.182,0.664,1.89,1.973,2.136,3.306c0.246,1.333,0.091,2.704-0.091,4.047
			c-0.12,0.89-0.268,1.818-0.805,2.538c-0.689,0.923-1.877,1.314-3.01,1.525c-1.274,0.238-2.617,0.311-3.841-0.112
			c-1.224-0.424-2.308-1.425-2.543-2.699c-0.182-0.986,0.154-2.003,0.652-2.874c0.498-0.87,1.156-1.638,1.702-2.48
			c0.464-0.715,0.813-1.474,1.129-2.263c0.183-0.458,0.362-0.982,0.788-1.275C278.534,113.929,280.484,114.363,281.43,114.894z"/>
		<path style="fill:#5A7EAE;" d="M248.428,131.402c-2,2.602-4.317,4.951-6.272,7.587c-1.168,1.574-0.843-0.978-2.506,0.059
			c-1.442,0.899-3.608,1.418-5.306,1.486c-2.85,0.114-7.185,0.32-9.551-1.273c0.41,2.238,1.215,7.839,2.134,9.92
			c0.919,2.081,1.549,6.917,3.597,7.909c1.902,0.922,4.96-1.948,7.064-2.147c7.099-0.672,13.904-4.087,18.685-9.378
			c2.818-3.118,4.96-6.855,8.138-9.606c3.361-2.909,7.694-4.545,10.957-7.564c0.516-0.478,1.042-1.108,0.912-1.799
			c-0.069-0.365-0.313-0.669-0.563-0.944c-1.138-1.247-2.554-2.202-3.795-3.346c-1.241-1.144-2.347-2.572-2.563-4.246
			c-0.158-1.223,0.155-2.556-0.437-3.637c-0.593-1.085-1.966-1.556-3.196-1.423c-1.23,0.133-2.348,0.754-3.4,1.403
			c-2.618,1.615-5.077,3.489-7.33,5.584c-0.861,0.8-2.279,1.766-2.472,2.975c-0.226,1.416-0.689,2.76-1.315,4.052
			C250.45,128.575,249.484,130.028,248.428,131.402z"/>
		
			<path style="fill:none;stroke:#6F1F46;stroke-width:1.6643;stroke-linecap:round;stroke-linejoin:round;stroke-miterlimit:10;" d="
			M224.884,139.289c0,0,21.013,9.764,28.996-18.573c0.727-2.582,3.74-5.398,3.183-8.022c-0.557-2.624-2.19-4.901-2.933-7.478
			c-0.062-0.215-0.115-0.435-0.158-0.659c-0.765-3.957,3.739-6.812,7.078-4.555c1.024,0.692,1.928,1.561,2.647,2.567
			c1.68,2.353,2.319,5.422,1.717,8.25c1.548-2.688,5.43-3.511,8.157-2.033c2.727,1.478,4.167,4.807,3.833,7.89
			c-0.192,1.769-0.955,3.543-2.376,4.615c-1.421,1.072-3.554,1.269-4.966,0.185c-1.139-0.875-1.631-2.412-1.522-3.844
			c0.109-1.432,0.743-2.775,1.507-3.992"/>
		
			<path style="fill:#5A7EAE;stroke:#6F1F46;stroke-width:1.6643;stroke-linecap:round;stroke-linejoin:round;stroke-miterlimit:10;" d="
			M283.992,121.716c1.885-0.489,4.048,0.655,4.705,2.489c0.657,1.833-0.288,4.091-2.055,4.91c-2.064,0.957-6.051,0.596-8.319,0.422
			c0,0-2.711,8.025-11.626,6.115c0,0-7.429,35.446-42.875,25.046"/>
		
			<path style="fill:none;stroke:#6F1F46;stroke-width:1.6643;stroke-linecap:round;stroke-linejoin:round;stroke-miterlimit:10;" d="
			M272.581,122.165c-0.139,3.113,2.177,4.964,5.754,4.198c3.165-0.678,5.786-3.661,5.783-6.898
			c-0.003-3.237-3.014-6.286-6.233-5.948"/>
		
			<path style="fill:none;stroke:#6F1F46;stroke-width:1.6643;stroke-linecap:round;stroke-linejoin:round;stroke-miterlimit:10;" d="
			M258.588,128.728c1.656,0.25,3.424-0.478,4.424-1.821"/>
		<path style="fill:#568C6D;stroke:#6F1F46;stroke-width:1.6643;stroke-miterlimit:10;" d="M221.276,179.267
			c9.846-6.361,14.335-17.543,15.655-22.679c1.07-4.165,2.413-12.662,2.716-16.952c2.199-31.208-7.15-32.428-7.15-32.428
			c-1.073,13.951-15.238,13.173-21.907,12.016c-3.675-0.637-7.286,1.479-8.523,4.998c-1.914,5.443-0.189,12.945,1.83,18.746
			c3.206,9.212,2.247,19.406-2.88,27.704C196.68,177.693,197.291,194.762,221.276,179.267z"/>
		<g>
			<path style="fill:#FDFBD2;" d="M233.446,108.489c6.816,6.923,6.266,19.826,5.746,28.888c-0.737,9.995-2.529,20.139-7.336,29.063
				c-3.139,5.902-7.982,11.157-13.98,14.001c4.303-2.524,7.921-6.034,10.609-10.208c8.059-12.607,9.336-28.242,9.358-42.855
				C237.54,120.958,237.299,113.891,233.446,108.489L233.446,108.489z"/>
		</g>
		
			<path style="fill:none;stroke:#6F1F46;stroke-width:1.6643;stroke-linecap:round;stroke-linejoin:round;stroke-miterlimit:10;" d="
			M215.511,167.89c-0.09-0.562,0.083-1.17,0.49-1.568s1.049-0.553,1.577-0.343c0.529,0.211,0.893,0.799,0.803,1.361
			c0.204-0.955,1.229-1.654,2.192-1.497c0.964,0.157,1.713,1.145,1.604,2.116"/>
		
			<path style="fill:none;stroke:#6F1F46;stroke-width:1.6643;stroke-linecap:round;stroke-linejoin:round;stroke-miterlimit:10;" d="
			M215.554,139.599c0.102-0.826,0.957-1.479,1.78-1.361s1.46,0.986,1.325,1.807c-0.079-0.848,0.711-1.669,1.561-1.623
			s1.548,0.946,1.379,1.78c-0.025-0.678,0.618-1.304,1.295-1.262s1.237,0.743,1.128,1.413"/>
		<path style="fill:#568C6D;" d="M42.816,112.702c0.021-1.188,0.571-2.296,1.132-3.344c0.588-1.098,1.208-2.198,1.515-3.406
			c0.307-1.207,0.265-2.562-0.41-3.609c-0.666-1.033-1.894-1.639-3.123-1.686c-1.229-0.047-2.444,0.421-3.425,1.162
			c-1.493,1.127-2.461,2.844-2.974,4.643c-0.513,1.799-0.606,3.689-0.616,5.559c-1.446-1.562-3.527-2.519-5.654-2.599
			c-1.336-0.05-2.743,0.266-3.735,1.163c-0.769,0.697-1.221,1.674-1.574,2.649c-0.628,1.734-1.013,3.615-0.659,5.426
			c0.353,1.81,1.56,3.531,3.312,4.109c1.752,0.577,3.968-0.3,4.531-2.056c0.229-0.714,0.227-1.575,0.796-2.062
			c0.807-0.69,2.03-0.094,2.9,0.515c1.722,1.207,3.483,2.465,5.526,2.964c1.863,0.455,5.639,0.232,5.09-2.468
			C44.949,117.222,42.771,115.272,42.816,112.702z"/>
		<path style="fill:#568C6D;" d="M18.57,115.578c-1.182,0.664-1.89,1.973-2.136,3.306c-0.246,1.333-0.091,2.704,0.091,4.047
			c0.12,0.89,0.268,1.818,0.805,2.538c0.689,0.923,1.877,1.314,3.01,1.525c1.274,0.238,2.617,0.311,3.841-0.112
			c1.224-0.424,2.308-1.425,2.543-2.699c0.182-0.986-0.154-2.003-0.652-2.874c-0.498-0.87-1.156-1.638-1.702-2.48
			c-0.464-0.715-0.813-1.474-1.129-2.263c-0.183-0.458-0.362-0.982-0.788-1.275C21.466,114.613,19.516,115.047,18.57,115.578z"/>
		<path style="fill:#568C6D;" d="M51.905,132.751c2,2.602,4.317,4.951,6.272,7.587c1.168,1.574,0.843-0.978,2.506,0.059
			c1.442,0.899,3.608,1.418,5.306,1.486c2.85,0.114,7.185,0.32,9.551-1.274c-0.41,2.238-1.215,7.839-2.134,9.92
			s-1.549,6.917-3.597,7.909c-1.902,0.922-4.96-1.948-7.064-2.147c-7.099-0.672-13.904-4.087-18.685-9.378
			c-2.818-3.118-4.96-6.855-8.138-9.606c-3.361-2.909-7.694-4.545-10.957-7.564c-0.516-0.478-1.042-1.108-0.912-1.799
			c0.069-0.365,0.313-0.669,0.563-0.944c1.138-1.247,2.554-2.202,3.795-3.346c1.241-1.144,2.347-2.572,2.563-4.246
			c0.158-1.223-0.155-2.556,0.437-3.637c0.593-1.085,1.966-1.556,3.196-1.423s2.348,0.754,3.4,1.403
			c2.618,1.615,5.077,3.489,7.33,5.584c0.861,0.8,2.279,1.766,2.472,2.975c0.226,1.416,0.689,2.76,1.315,4.052
			C49.882,129.924,50.849,131.377,51.905,132.751z"/>
		
			<path style="fill:none;stroke:#6F1F46;stroke-width:1.6643;stroke-linecap:round;stroke-linejoin:round;stroke-miterlimit:10;" d="
			M75.116,140.305c0,0-21.013,9.764-28.996-18.573c-0.727-2.582-3.74-5.398-3.183-8.022c0.557-2.624,2.19-4.901,2.933-7.478
			c0.062-0.215,0.115-0.435,0.158-0.659c0.765-3.957-3.739-6.812-7.078-4.555c-1.024,0.692-1.928,1.561-2.647,2.567
			c-1.68,2.353-2.319,5.422-1.717,8.25c-1.548-2.688-5.43-3.511-8.157-2.033c-2.727,1.478-4.167,4.807-3.833,7.89
			c0.192,1.769,0.955,3.543,2.376,4.615c1.421,1.072,3.554,1.269,4.966,0.185c1.139-0.875,1.631-2.412,1.522-3.844
			c-0.109-1.432-0.743-2.775-1.507-3.992"/>
		
			<path style="fill:#568C6D;stroke:#6F1F46;stroke-width:1.6643;stroke-linecap:round;stroke-linejoin:round;stroke-miterlimit:10;" d="
			M16.008,123.066c-1.885-0.489-4.048,0.655-4.705,2.489c-0.657,1.833,0.288,4.091,2.055,4.91c2.064,0.957,6.051,0.596,8.319,0.422
			c0,0,2.711,8.025,11.626,6.115c0,0,7.429,35.446,42.875,25.046"/>
		
			<path style="fill:#568C6D;stroke:#6F1F46;stroke-width:1.6643;stroke-linecap:round;stroke-linejoin:round;stroke-miterlimit:10;" d="
			M47.476,131.206c0.593-0.703,1.519-1.135,2.436-1.057s1.785,0.698,2.086,1.567c0.301,0.869-0.033,1.937-0.816,2.42
			c1.384-0.759,3.322-0.245,4.148,1.099c0.826,1.345,0.409,3.305-0.893,4.197"/>
		
			<path style="fill:#568C6D;stroke:#6F1F46;stroke-width:1.6643;stroke-linecap:round;stroke-linejoin:round;stroke-miterlimit:10;" d="
			M44.654,155.562c-0.813,0.687-1.129,1.903-0.754,2.899c0.374,0.996,1.413,1.702,2.477,1.684c-0.196,0.838,0.344,1.782,1.166,2.037
			c0.822,0.256,1.802-0.215,2.116-1.017c-0.143,0.859,0.516,1.769,1.376,1.901c0.86,0.132,1.762-0.537,1.884-1.399
			c-0.112,0.764,0.462,1.563,1.221,1.702c0.759,0.139,1.579-0.405,1.745-1.159"/>
		
			<path style="fill:none;stroke:#6F1F46;stroke-width:1.6643;stroke-linecap:round;stroke-linejoin:round;stroke-miterlimit:10;" d="
			M27.419,123.182c0.139,3.113-2.177,4.964-5.754,4.198c-3.166-0.678-5.786-3.661-5.783-6.898c0.003-3.237,3.014-6.286,6.233-5.948"
			/>
		
			<path style="fill:#568C6D;stroke:#6F1F46;stroke-width:1.6643;stroke-linecap:round;stroke-linejoin:round;stroke-miterlimit:10;" d="
			M41.412,129.745c-1.656,0.25-3.424-0.478-4.424-1.821"/>
		
			<path style="fill:#568C6D;stroke:#6F1F46;stroke-width:1.6643;stroke-linecap:round;stroke-linejoin:round;stroke-miterlimit:10;" d="
			M119.451,230.429c-0.913,0.108-1.885-0.21-2.501-0.893s-0.826-1.73-0.451-2.569s1.348-1.391,2.25-1.209
			c-1.529-0.392-2.592-2.091-2.276-3.638s1.961-2.692,3.521-2.453"/>
		
			<path style="fill:#568C6D;stroke:#6F1F46;stroke-width:1.6643;stroke-linecap:round;stroke-linejoin:round;stroke-miterlimit:10;" d="
			M141.877,259.071c0.953,0.472,2.195,0.279,2.96-0.46c0.765-0.74,1-1.974,0.56-2.942c0.847-0.153,1.498-1.024,1.406-1.88
			c-0.092-0.856-0.914-1.568-1.774-1.538c0.845-0.21,1.418-1.177,1.197-2.019s-1.194-1.403-2.033-1.173
			c0.745-0.201,1.251-1.045,1.077-1.797c-0.174-0.752-0.999-1.288-1.757-1.141"/>
		
			<path style="fill:#568C6D;stroke:#6F1F46;stroke-width:1.6643;stroke-linecap:round;stroke-linejoin:round;stroke-miterlimit:10;" d="
			M98.485,245.505c-0.33-0.858-0.262-1.878,0.248-2.644c0.51-0.765,1.472-1.227,2.379-1.071c0.906,0.156,1.681,0.963,1.727,1.882
			c0.003-1.578,1.387-3.028,2.964-3.103c1.576-0.075,3.093,1.236,3.246,2.807"/>
	</g>
</g>
<g id="Laag_16">
</g>
<g id="Head">
</g>
<g id="Laag_1">
	<g id="left_arm_00000112627464360380445630000017517137583932750723_">
		<g>
			
				<ellipse transform="matrix(0.9348 -0.3551 0.3551 0.9348 -11.0784 45.0731)" style="fill:#E1A946;stroke:#6F1F46;stroke-width:1.66;stroke-miterlimit:10;" cx="117.264" cy="52.72" rx="28.408" ry="12.029"/>
			<path style="fill:#E1A946;stroke:#6F1F46;stroke-width:1.66;stroke-miterlimit:10;" d="M124.184,25.397L93.951,36.88
				l7.533,19.423c1.343,3.536,9.199,3.83,17.548,0.659s14.029-8.608,12.686-12.143L124.184,25.397z"/>
			
				<ellipse transform="matrix(0.9348 -0.3551 0.3551 0.9348 -3.6163 40.5355)" style="fill:#E1A946;stroke:#6F1F46;stroke-width:1.66;stroke-miterlimit:10;" cx="108.632" cy="30.121" rx="16.171" ry="6.847"/>
		</g>
	</g>
</g>
</svg>
