<?xml version="1.0" encoding="iso-8859-1"?>
<!-- Generator: Adobe Illustrator 28.4.1, SVG Export Plug-In . SVG Version: 6.00 Build 0)  -->
<svg version="1.1" xmlns="http://www.w3.org/2000/svg" xmlns:xlink="http://www.w3.org/1999/xlink" x="0px" y="0px"
	 viewBox="0 0 300 300" style="enable-background:new 0 0 300 300;" xml:space="preserve">
<g id="floor">
</g>
<g id="Legs">
</g>
<g id="Laag_1">
</g>
<g id="island_small">
</g>
<g id="smile">
</g>
<g id="Eyes">
</g>
<g id="Shoes">
</g>
<g id="big_island">
</g>
<g id="right_arm">
</g>
<g id="island_right">
</g>
<g id="left_arm">
</g>
<g id="Laag_16">
</g>
<g id="Head">
	<ellipse style="fill:#6F1F46;" cx="145.102" cy="266.495" rx="97.21" ry="11.059"/>
	<g id="Isolatiemodus">
		
			<path style="fill:#568C6D;stroke:#6F1F46;stroke-width:1.6643;stroke-linecap:round;stroke-linejoin:round;stroke-miterlimit:10;" d="
			M114.12,246.129l-0.326-41.539h26.022v41.274c0,6.657,0,12.981-0.021,19.482c-0.005,1.491-0.239,3.161-1.393,4.105
			c-0.886,0.725-2.118,1.474-3.262,1.525c-4.401,0.196-8.799-0.047-13.204-0.078c-9.747-0.069-17.735,0.264-28.554-0.545
			c-1.683-0.126-3.388-1.198-4.476-2.488c-1.316-1.559-1.315-4.138-1.246-6.178c0.125-3.695,0.256-7.435,1.288-10.985
			c1.032-3.55,3.076-6.948,6.245-8.852c1.666-1.001,3.583-1.552,5.519-1.72c4.077-0.354,8.277,1.033,11.342,3.745
			c3.065,2.712,4.953,6.712,5.098,10.802"/>
		
			<path style="fill:#5A7EAE;stroke:#6F1F46;stroke-width:1.7141;stroke-linecap:round;stroke-linejoin:round;stroke-miterlimit:10;" d="
			M177.572,246.129l0.326-41.539h-26.022v41.274c0,6.657,0,12.981,0.021,19.482c0.005,1.491,0.239,3.161,1.393,4.105
			c0.886,0.725,2.118,1.474,3.262,1.525c4.401,0.196,8.799-0.047,13.204-0.078c9.747-0.069,17.735,0.264,28.554-0.545
			c1.683-0.126,3.388-1.198,4.476-2.488c1.316-1.559,1.315-4.138,1.246-6.178c-0.125-3.695-0.256-7.435-1.288-10.985
			c-1.032-3.55-3.076-6.948-6.245-8.852c-1.666-1.001-3.583-1.552-5.519-1.72c-4.077-0.354-8.277,1.033-11.342,3.745
			c-3.065,2.712-4.953,6.712-5.098,10.802"/>
		
			<path style="fill:#568C6D;stroke:#6F1F46;stroke-width:1.6643;stroke-linecap:round;stroke-linejoin:round;stroke-miterlimit:10;" d="
			M94.062,243.744c-0.33-0.858-0.262-1.878,0.248-2.644c0.51-0.765,1.472-1.227,2.379-1.071c0.906,0.156,1.681,0.963,1.727,1.882
			c0.003-1.578,1.387-3.028,2.964-3.103c1.576-0.075,3.093,1.236,3.246,2.807"/>
	</g>
	<path style="fill:none;stroke:#FDFBD2;stroke-width:1.001;stroke-miterlimit:10;" d="M134.684,210.535"/>
	<path style="fill:none;stroke:#FDFBD2;stroke-width:1.001;stroke-miterlimit:10;" d="M172.723,210.535"/>
	<path style="fill:#9E366C;stroke:#6F1F46;stroke-width:1.4593;stroke-miterlimit:10;" d="M140.346,250.489v-22.282h5.436v-21.719
		h-32.052l0.226,41.425c0.008,1.441,1.179,2.605,2.621,2.603L140.346,250.489z"/>
	<path style="fill:#9E366C;stroke:#6F1F46;stroke-width:1.4593;stroke-miterlimit:10;" d="M151.531,250.489v-22.282h-5.435v-21.719
		h32.052l-0.226,41.425c-0.008,1.441-1.179,2.605-2.621,2.603L151.531,250.489z"/>
	<path style="fill:none;stroke:#6F1F46;stroke-width:1.7313;stroke-linecap:round;stroke-linejoin:round;stroke-miterlimit:10;" d="
		M125.983,205.249c-1.818,4.907-6.519,8.62-11.713,9.253"/>
	<path style="fill:none;stroke:#6F1F46;stroke-width:1.7313;stroke-linecap:round;stroke-linejoin:round;stroke-miterlimit:10;" d="
		M165.486,205.249c1.818,4.907,6.519,8.62,11.714,9.253"/>
	<circle style="fill:#5A7EAE;stroke:#6F1F46;stroke-width:1.6683;stroke-miterlimit:10;" cx="145.08" cy="134.104" r="86.121"/>
	<g>
		<path style="fill:#FDFBD2;" d="M146.963,49.259c46.469-1.058,84.308,40.037,83.355,85.801
			c0.01,45.999-39.695,85.025-85.694,84.014c45.017-0.116,84.355-38.911,84.03-84.033C229.701,89.859,192.649,49.526,146.963,49.259
			L146.963,49.259z"/>
	</g>
	<path style="fill:#568C6D;stroke:#6F1F46;stroke-width:1.6683;stroke-miterlimit:10;" d="M203.383,192.118"/>
	<g>
		<path style="fill:none;" d="M119.583,91.079"/>
	</g>
	<path style="fill:#568C6D;stroke:#6F1F46;stroke-width:1.6683;stroke-miterlimit:10;" d="M124.498,170.017
		c-0.999,0.767-1.629,1.812-2.019,2.998c-1.555,4.733,1.438,9.768,6.3,10.854c0.542,0.121,1.085,0.24,1.624,0.364
		c2.853,0.654,5.767,1.502,8.013,3.379c2.246,1.877,3.662,5.031,2.705,7.798c-0.774,2.239-2.97,4.046-2.83,6.411
		c0.152,2.555,2.9,4.053,5.328,4.864c8.042,2.689,26.331,6.483,31.111-3.526c1.912-4.004,0.102-8.789-2.312-12.512
		s-5.509-7.21-6.425-11.551c-1.007-4.775,0.813-9.63,2.315-14.274c1.501-4.644,2.667-9.883,0.496-14.254
		c-2.374-4.778-8.605-7.033-13.665-5.341s-8.601,6.838-8.907,12.165c-0.218,3.806,0.822,8.243-1.838,10.975
		c-2.421,2.487-6.486,1.98-9.862,1.17C131.158,168.726,127.248,167.898,124.498,170.017z"/>
	<g>
		<path style="fill:#FDFBD2;" d="M173.747,203.209c1.857-4.543-1.37-8.8-3.935-12.343c-2.759-3.714-6.134-7.613-6.465-12.526
			c-0.568-7.207,3.307-13.61,5.054-20.329c0.615-2.193,0.565-4.617-0.163-6.729c1.219,2.031,1.286,4.571,0.949,6.879
			c-1.115,6.688-4.763,13.285-4.195,20.027C165.427,186.913,178.334,194.113,173.747,203.209L173.747,203.209z"/>
	</g>
	<path style="fill:none;stroke:#6F1F46;stroke-width:1.6683;stroke-linecap:round;stroke-linejoin:round;stroke-miterlimit:10;" d="
		M146.061,178.344c-0.09-0.563,0.083-1.173,0.491-1.572c0.408-0.398,1.051-0.555,1.581-0.343c0.53,0.211,0.895,0.801,0.805,1.364
		c0.205-0.957,1.232-1.658,2.198-1.501c0.966,0.157,1.717,1.148,1.608,2.121"/>
	<path style="fill:none;stroke:#6F1F46;stroke-width:1.6683;stroke-linecap:round;stroke-linejoin:round;stroke-miterlimit:10;" d="
		M157.517,198.447c0.588,0.686,1.176,1.371,1.763,2.057"/>
	<path style="fill:none;stroke:#6F1F46;stroke-width:1.6683;stroke-linecap:round;stroke-linejoin:round;stroke-miterlimit:10;" d="
		M159.019,196.278c0.588,0.686,1.175,1.371,1.763,2.057"/>
	<path style="fill:none;stroke:#6F1F46;stroke-width:1.6683;stroke-linecap:round;stroke-linejoin:round;stroke-miterlimit:10;" d="
		M168.565,128.799c0.792,1.554,2.536,2.57,4.279,2.494c1.743-0.076,3.391-1.241,4.045-2.858"/>
	<circle style="fill:#FFFFFF;stroke:#6F1F46;stroke-width:1.3347;stroke-miterlimit:10;" cx="181.288" cy="113.373" r="10.697"/>
	<circle style="fill:#6F1F46;" cx="182.306" cy="116.928" r="6.607"/>
	<circle style="fill:#FFFFFF;" cx="182.708" cy="116.45" r="0.999"/>
	<circle style="fill:#FFFFFF;" cx="185.026" cy="119.662" r="1.555"/>
	<circle style="fill:#FFFFFF;" cx="181.183" cy="119.535" r="1.101"/>
	<path style="fill:#5A7EAE;stroke:#6F1F46;stroke-width:1.3347;stroke-miterlimit:10;" d="M191.968,113.223h-21.396
		c0.047-5.867,4.821-10.612,10.697-10.612C187.148,102.612,191.921,107.356,191.968,113.223z"/>
	<circle style="fill:#FFFFFF;stroke:#6F1F46;stroke-width:1.3347;stroke-miterlimit:10;" cx="163.668" cy="113.373" r="10.697"/>
	<circle style="fill:#6F1F46;" cx="164.126" cy="116.928" r="6.607"/>
	<circle style="fill:#FFFFFF;" cx="164.529" cy="116.45" r="0.999"/>
	<circle style="fill:#FFFFFF;" cx="166.847" cy="119.662" r="1.555"/>
	<circle style="fill:#FFFFFF;" cx="163.004" cy="119.535" r="1.101"/>
	<path style="fill:#5A7EAE;stroke:#6F1F46;stroke-width:1.3347;stroke-miterlimit:10;" d="M174.375,113.223h-21.396
		c0.047-5.867,4.821-10.612,10.697-10.612C169.555,102.612,174.328,107.356,174.375,113.223z"/>
	<path style="fill:#5A7EAE;stroke:#6F1F46;stroke-width:1.2733;stroke-miterlimit:10;" d="M109.107,235.44"/>
	<path style="fill:#568C6D;stroke:#6F1F46;stroke-width:1.6683;stroke-miterlimit:10;" d="M83.037,194.08
		c-33.632-33.632-33.632-88.161,0-121.794c7.515-7.515,16.484-13.97,26.477-17.587c6.031-2.183,12.853-3.363,18.772-0.894
		s10.16,9.654,7.563,15.519c-3.019,6.819-13.353,9.153-14.288,16.551c-0.481,3.807,1.874,7.303,3.618,10.72
		c1.745,3.417,2.798,7.971,0.19,10.785c-3.822,4.124-10.983,0.42-16.211,2.49c-5.412,2.144-6.504,9.366-5.647,15.124
		c1.172,7.873,4.344,15.282,6.761,22.865s4.093,15.741,2.182,23.468C109.391,183.725,95.705,195.694,83.037,194.08z"/>
	<path style="fill:none;stroke:#6F1F46;stroke-width:1.6683;stroke-linecap:round;stroke-linejoin:round;stroke-miterlimit:10;" d="
		M78.738,99.438c-0.09-0.563,0.083-1.173,0.491-1.572c0.408-0.398,1.051-0.555,1.581-0.343c0.53,0.211,0.895,0.801,0.805,1.364
		c0.205-0.957,1.232-1.658,2.198-1.501c0.966,0.157,1.717,1.148,1.608,2.121"/>
	<path style="fill:none;stroke:#6F1F46;stroke-width:1.6683;stroke-linecap:round;stroke-linejoin:round;stroke-miterlimit:10;" d="
		M109.052,80.136c-0.09-0.563,0.083-1.173,0.491-1.572c0.408-0.398,1.051-0.555,1.581-0.343s0.895,0.801,0.805,1.364
		c0.205-0.957,1.232-1.658,2.198-1.501s1.717,1.148,1.608,2.121"/>
	<path style="fill:none;stroke:#6F1F46;stroke-width:1.6683;stroke-linecap:round;stroke-linejoin:round;stroke-miterlimit:10;" d="
		M86.746,167.683c-0.09-0.563,0.083-1.173,0.491-1.572c0.408-0.398,1.051-0.555,1.581-0.343c0.53,0.211,0.895,0.801,0.805,1.364
		c0.205-0.957,1.232-1.658,2.198-1.501c0.966,0.157,1.717,1.148,1.608,2.121"/>
	<path style="fill:none;stroke:#6F1F46;stroke-width:1.6683;stroke-linecap:round;stroke-linejoin:round;stroke-miterlimit:10;" d="
		M79.69,133.072c0.588,0.686,1.175,1.371,1.763,2.057"/>
	<path style="fill:none;stroke:#6F1F46;stroke-width:1.6683;stroke-linecap:round;stroke-linejoin:round;stroke-miterlimit:10;" d="
		M81.192,130.903c0.588,0.686,1.175,1.371,1.763,2.057"/>
	<g>
		<path style="fill:#FDFBD2;" d="M83.376,193.152c12.852-0.8,23.8-11.001,26.8-23.292c1.221-6.156-0.023-12.63-1.375-18.718
			c-1.113-4.654-2.506-9.258-4.059-13.791c-3.226-8.427-6.947-24.81,4.592-28.833c-9.995,4.286-7.215,17.98-4.103,26.097
			c2.006,5.276,3.826,10.655,5.154,16.148c1.467,6.341,2.696,12.928,1.341,19.45C108.549,182.795,96.42,193.728,83.376,193.152
			L83.376,193.152z"/>
	</g>
	<path style="fill:#5A7EAE;" d="M260.572,110.72c0.039-1.191-0.456-2.328-0.964-3.405c-0.533-1.129-1.098-2.262-1.344-3.486
		c-0.246-1.224-0.136-2.578,0.593-3.592c0.72-1.001,1.979-1.545,3.212-1.53c1.233,0.015,2.425,0.545,3.371,1.337
		c1.438,1.204,2.32,2.972,2.743,4.799c0.423,1.827,0.421,3.724,0.336,5.597c1.527-1.491,3.658-2.344,5.792-2.317
		c1.34,0.017,2.733,0.405,3.68,1.353c0.735,0.736,1.138,1.737,1.442,2.732c0.541,1.768,0.831,3.671,0.386,5.465
		c-0.445,1.795-1.741,3.457-3.524,3.946c-1.783,0.489-3.958-0.501-4.432-2.288c-0.193-0.727-0.147-1.588-0.693-2.105
		c-0.773-0.732-2.028-0.197-2.929,0.369c-1.785,1.122-3.611,2.292-5.682,2.688c-1.889,0.361-5.657-0.053-4.971-2.728
		C258.208,115.138,260.487,113.296,260.572,110.72z"/>
	<path style="fill:#5A7EAE;" d="M284.718,114.493c1.149,0.724,1.792,2.071,1.972,3.417c0.179,1.347-0.046,2.711-0.296,4.047
		c-0.166,0.884-0.361,1.807-0.935,2.5c-0.737,0.889-1.946,1.22-3.091,1.375c-1.287,0.174-2.635,0.179-3.84-0.307
		c-1.204-0.486-2.239-1.543-2.409-2.831c-0.132-0.997,0.256-1.998,0.799-2.844c0.543-0.846,1.241-1.582,1.83-2.396
		c0.501-0.693,0.888-1.434,1.244-2.208c0.207-0.449,0.412-0.965,0.854-1.236C281.868,113.381,283.798,113.913,284.718,114.493z"/>
	<path style="fill:#5A7EAE;" d="M251.11,130c-2.134,2.504-4.572,4.738-6.663,7.279c-1.249,1.517-0.794-1.022-2.512-0.068
		c-1.489,0.827-3.684,1.237-5.388,1.219c-2.859-0.03-7.21-0.043-9.498-1.758c0.298,2.261,0.82,7.91,1.635,10.04
		s1.201,7.003,3.201,8.1c1.857,1.019,5.064-1.7,7.181-1.793c7.142-0.314,14.127-3.389,19.181-8.444
		c2.979-2.979,5.312-6.613,8.633-9.205c3.512-2.743,7.933-4.161,11.353-7.019c0.541-0.452,1.099-1.056,1.004-1.755
		c-0.05-0.369-0.28-0.686-0.516-0.973c-1.076-1.306-2.446-2.334-3.63-3.542c-1.185-1.208-2.219-2.694-2.351-4.381
		c-0.096-1.232,0.284-2.551-0.253-3.664c-0.539-1.116-1.89-1.657-3.128-1.586c-1.238,0.071-2.389,0.636-3.475,1.233
		c-2.703,1.485-5.259,3.237-7.621,5.22c-0.902,0.758-2.371,1.653-2.626,2.853c-0.298,1.407-0.83,2.729-1.522,3.99
		C253.277,127.272,252.236,128.678,251.11,130z"/>
	<path style="fill:none;stroke:#6F1F46;stroke-width:1.6683;stroke-linecap:round;stroke-linejoin:round;stroke-miterlimit:10;" d="
		M226.839,136.723c0,0,20.544,10.837,29.969-17.128c0.859-2.548,4.017-5.215,3.592-7.87c-0.425-2.655-1.944-5.017-2.558-7.635
		c-0.051-0.218-0.093-0.441-0.125-0.668c-0.565-4.001,4.088-6.63,7.317-4.202c0.99,0.745,1.852,1.66,2.52,2.704
		c1.563,2.441,2.047,5.546,1.302,8.347c1.686-2.612,5.614-3.24,8.269-1.623s3.929,5.023,3.438,8.093
		c-0.281,1.761-1.135,3.499-2.612,4.5c-1.476,1.001-3.622,1.091-4.981-0.066c-1.096-0.933-1.511-2.497-1.329-3.925
		s0.884-2.741,1.711-3.92"/>
	
		<path style="fill:#5A7EAE;stroke:#6F1F46;stroke-width:1.6683;stroke-linecap:round;stroke-linejoin:round;stroke-miterlimit:10;" d="
		M286.871,122.786c1.912-0.394,4.02,0.861,4.584,2.729c0.565,1.868-0.495,4.081-2.305,4.812c-2.115,0.854-6.088,0.291-8.35,0.002
		c0,0-3.12,7.898-11.948,5.534c0,0-9.23,35.111-44.191,22.907"/>
	<path style="fill:none;stroke:#6F1F46;stroke-width:1.6683;stroke-linecap:round;stroke-linejoin:round;stroke-miterlimit:10;" d="
		M275.458,121.992c-0.297,3.109,1.929,5.08,5.548,4.494c3.203-0.519,5.977-3.372,6.138-6.613c0.161-3.241-2.699-6.445-5.94-6.27"/>
	<path style="fill:none;stroke:#6F1F46;stroke-width:1.6683;stroke-linecap:round;stroke-linejoin:round;stroke-miterlimit:10;" d="
		M261.116,127.854c1.646,0.334,3.452-0.305,4.521-1.6"/>
	
		<path style="fill:#FDFBD2;stroke:#6F1F46;stroke-width:1.7313;stroke-linecap:round;stroke-linejoin:round;stroke-miterlimit:10;" d="
		M253.066,125.979l14.116,22.468c0,0-27.947,23.199-44.269,14.209c-16.322-8.99-0.302,0-0.302,0l-0.233-23.867
		C222.377,138.789,241.963,137.484,253.066,125.979z"/>
	<path style="fill:#568C6D;stroke:#6F1F46;stroke-width:1.6683;stroke-miterlimit:10;" d="M215.751,180.07
		c9.87-6.376,14.37-17.586,15.693-22.735c1.073-4.176,2.419-12.693,2.722-16.993c2.205-31.284-7.168-32.507-7.168-32.507
		c-1.076,13.985-15.276,13.205-21.96,12.046c-3.684-0.639-7.304,1.483-8.544,5.01c-1.918,5.457-0.189,12.976,1.835,18.792
		c3.214,9.235,2.252,19.454-2.887,27.772C191.096,178.491,191.708,195.602,215.751,180.07z"/>
	<g>
		<path style="fill:#FDFBD2;" d="M227.951,109.119c6.833,6.94,6.282,19.874,5.76,28.959c-0.739,10.02-2.535,20.189-7.354,29.134
			c-3.146,5.916-8.001,11.184-14.014,14.035c4.314-2.53,7.941-6.049,10.635-10.233c8.079-12.638,9.359-28.311,9.381-42.96
			C232.055,121.618,231.813,114.534,227.951,109.119L227.951,109.119z"/>
	</g>
	<path style="fill:none;stroke:#6F1F46;stroke-width:1.6683;stroke-linecap:round;stroke-linejoin:round;stroke-miterlimit:10;" d="
		M210.639,171.334c-0.09-0.563,0.083-1.173,0.491-1.572c0.408-0.398,1.051-0.555,1.581-0.343c0.53,0.211,0.895,0.801,0.805,1.364
		c0.205-0.957,1.232-1.658,2.198-1.501c0.966,0.157,1.717,1.148,1.608,2.121"/>
	<path style="fill:none;stroke:#6F1F46;stroke-width:1.6683;stroke-linecap:round;stroke-linejoin:round;stroke-miterlimit:10;" d="
		M212.684,148.646c0.102-0.828,0.959-1.483,1.784-1.364c0.825,0.118,1.463,0.988,1.328,1.811c-0.079-0.85,0.712-1.673,1.565-1.627
		s1.551,0.948,1.382,1.785c-0.025-0.68,0.619-1.307,1.298-1.265c0.679,0.042,1.24,0.745,1.131,1.416"/>
	
		<path style="fill:#FDFBD2;stroke:#6F1F46;stroke-width:1.7313;stroke-linecap:round;stroke-linejoin:round;stroke-miterlimit:10;" d="
		M184.259,142.445c0.059,0.377,0.099,0.761,0.117,1.15c0.277,5.983-4.46,11.062-10.58,11.345c-6.12,0.283-11.305-4.337-11.582-10.32
		c-0.034-0.73,0.008-1.446,0.117-2.141l-104.633,0.165c4.612,45.559,44.964,80.054,92.309,77.864
		c44.589-2.063,79.994-35.954,84.287-78.142L184.259,142.445z"/>
	<path style="fill:#568C6D;" d="M40.192,112.007c0.021-1.191,0.572-2.302,1.135-3.352c0.59-1.101,1.211-2.204,1.518-3.414
		c0.308-1.21,0.266-2.568-0.411-3.618c-0.668-1.036-1.899-1.643-3.131-1.69c-1.232-0.047-2.45,0.422-3.434,1.165
		c-1.497,1.13-2.467,2.851-2.981,4.654c-0.514,1.803-0.608,3.698-0.618,5.573c-1.449-1.566-3.536-2.525-5.668-2.606
		c-1.34-0.051-2.75,0.266-3.744,1.166c-0.771,0.698-1.224,1.678-1.578,2.656c-0.63,1.739-1.015,3.624-0.661,5.439
		s1.564,3.54,3.32,4.119c1.756,0.579,3.978-0.3,4.542-2.061c0.229-0.716,0.227-1.579,0.798-2.067
		c0.808-0.692,2.035-0.094,2.907,0.517c1.727,1.21,3.491,2.471,5.539,2.972c1.868,0.456,5.653,0.232,5.102-2.474
		C42.331,116.539,40.147,114.584,40.192,112.007z"/>
	<path style="fill:#568C6D;" d="M15.887,114.89c-1.184,0.665-1.895,1.978-2.142,3.314c-0.247,1.336-0.091,2.71,0.091,4.056
		c0.121,0.892,0.269,1.823,0.807,2.544c0.691,0.925,1.882,1.317,3.017,1.529c1.277,0.238,2.623,0.312,3.85-0.113
		c1.227-0.425,2.314-1.428,2.549-2.706c0.182-0.989-0.154-2.008-0.654-2.881c-0.5-0.873-1.159-1.642-1.707-2.486
		c-0.465-0.717-0.815-1.477-1.131-2.268c-0.184-0.459-0.363-0.984-0.79-1.278C18.789,113.923,16.835,114.358,15.887,114.89z"/>
	<path style="fill:#568C6D;" d="M49.303,132.105c2.005,2.609,4.328,4.963,6.287,7.605c1.171,1.578,0.845-0.981,2.512,0.059
		c1.446,0.901,3.617,1.421,5.319,1.489c2.857,0.114,7.203,0.321,9.575-1.277c-0.411,2.243-1.218,7.859-2.139,9.945
		c-0.921,2.086-1.553,6.933-3.605,7.928c-1.906,0.924-4.972-1.953-7.081-2.153c-7.117-0.674-13.938-4.097-18.731-9.4
		c-2.825-3.126-4.972-6.872-8.158-9.629c-3.37-2.916-7.713-4.556-10.984-7.583c-0.517-0.479-1.045-1.111-0.914-1.803
		c0.069-0.366,0.314-0.671,0.565-0.946c1.141-1.25,2.561-2.208,3.805-3.355c1.244-1.147,2.352-2.578,2.569-4.256
		c0.159-1.226-0.155-2.562,0.438-3.646c0.595-1.088,1.971-1.56,3.204-1.427c1.233,0.133,2.354,0.756,3.409,1.407
		c2.625,1.619,5.089,3.498,7.348,5.598c0.863,0.802,2.285,1.771,2.478,2.982c0.227,1.42,0.691,2.767,1.318,4.062
		C47.276,129.272,48.245,130.728,49.303,132.105z"/>
	<path style="fill:none;stroke:#6F1F46;stroke-width:1.6683;stroke-linecap:round;stroke-linejoin:round;stroke-miterlimit:10;" d="
		M72.571,139.678c0,0-21.064,9.787-29.067-18.618c-0.729-2.588-3.749-5.411-3.191-8.041c0.559-2.63,2.195-4.913,2.94-7.496
		c0.062-0.215,0.115-0.436,0.158-0.661c0.767-3.967-3.748-6.828-7.096-4.566c-1.027,0.694-1.933,1.565-2.653,2.574
		c-1.684,2.359-2.325,5.435-1.722,8.27c-1.552-2.694-5.443-3.519-8.177-2.038c-2.734,1.481-4.177,4.818-3.842,7.91
		c0.192,1.773,0.958,3.552,2.382,4.626c1.424,1.074,3.563,1.272,4.978,0.186c1.142-0.877,1.635-2.418,1.525-3.853
		c-0.11-1.436-0.745-2.782-1.511-4.001"/>
	
		<path style="fill:#568C6D;stroke:#6F1F46;stroke-width:1.6683;stroke-linecap:round;stroke-linejoin:round;stroke-miterlimit:10;" d="
		M13.318,122.397c-1.889-0.49-4.058,0.657-4.716,2.495c-0.658,1.838,0.289,4.101,2.06,4.922c2.069,0.959,6.066,0.598,8.34,0.423
		c0,0,2.718,8.045,11.654,6.13c0,0,7.447,35.532,42.979,25.107"/>
	
		<path style="fill:#568C6D;stroke:#6F1F46;stroke-width:1.6683;stroke-linecap:round;stroke-linejoin:round;stroke-miterlimit:10;" d="
		M45.197,130.89c0.594-0.705,1.523-1.138,2.442-1.06c0.919,0.078,1.789,0.7,2.091,1.571s-0.033,1.942-0.818,2.426
		c1.387-0.761,3.33-0.246,4.158,1.102s0.41,3.313-0.895,4.207"/>
	<path style="fill:none;stroke:#6F1F46;stroke-width:1.6683;stroke-linecap:round;stroke-linejoin:round;stroke-miterlimit:10;" d="
		M24.757,122.513c0.139,3.12-2.183,4.976-5.768,4.209c-3.173-0.679-5.8-3.669-5.797-6.915c0.003-3.245,3.021-6.301,6.249-5.962"/>
	
		<path style="fill:#568C6D;stroke:#6F1F46;stroke-width:1.6683;stroke-linecap:round;stroke-linejoin:round;stroke-miterlimit:10;" d="
		M38.785,129.092c-1.66,0.25-3.432-0.479-4.435-1.826"/>
	
		<path style="fill:#FDFBD2;stroke:#6F1F46;stroke-width:1.7313;stroke-linecap:round;stroke-linejoin:round;stroke-miterlimit:10;" d="
		M73.357,138.97c-19.25,0.181-21.586-6.158-26.925-11.163l-16.016,11.345c0,0,15.682,38.038,45.76,23.428l0,0h0
		c4.899-6.939,4.554-16.297-0.842-22.857l-0.006-0.007C74.851,139.135,74.11,138.963,73.357,138.97z"/>
	
		<path style="fill:#FDFBD2;stroke:#6F1F46;stroke-width:1.1314;stroke-linecap:round;stroke-linejoin:round;stroke-miterlimit:10;" d="
		M166.318,206.515c-0.063-0.397,0.059-0.827,0.346-1.107c0.288-0.281,0.741-0.391,1.114-0.242c0.373,0.149,0.631,0.564,0.567,0.961
		c0.144-0.674,0.868-1.168,1.548-1.057c0.681,0.111,1.21,0.809,1.133,1.494"/>
	
		<path style="fill:#FDFBD2;stroke:#6F1F46;stroke-width:1.1314;stroke-linecap:round;stroke-linejoin:round;stroke-miterlimit:10;" d="
		M137.549,169.953c0.192-0.491,0.044-1.094-0.354-1.44c-0.398-0.346-1.016-0.408-1.475-0.15c-0.112-0.411-0.569-0.695-0.988-0.613
		c-0.418,0.082-0.734,0.518-0.682,0.941c-0.14-0.408-0.641-0.649-1.047-0.504s-0.641,0.649-0.491,1.053
		c-0.131-0.359-0.569-0.572-0.933-0.454c-0.363,0.118-0.592,0.548-0.487,0.916"/>
	
		<path style="fill:#FDFBD2;stroke:#6F1F46;stroke-width:1.1314;stroke-linecap:round;stroke-linejoin:round;stroke-miterlimit:10;" d="
		M110.262,170.456c0.271-0.452,0.224-1.072-0.111-1.479c-0.335-0.407-0.935-0.571-1.43-0.392c-0.042-0.424-0.446-0.78-0.872-0.768
		c-0.426,0.012-0.81,0.389-0.828,0.815c-0.071-0.425-0.525-0.746-0.949-0.67c-0.424,0.076-0.74,0.534-0.659,0.957
		c-0.07-0.376-0.467-0.658-0.845-0.602c-0.378,0.056-0.675,0.442-0.632,0.822"/>
	
		<path style="fill:#FDFBD2;stroke:#6F1F46;stroke-width:1.1314;stroke-linecap:round;stroke-linejoin:round;stroke-miterlimit:10;" d="
		M121.143,153.548c0.192-0.491,0.044-1.094-0.354-1.44s-1.016-0.408-1.475-0.15c-0.112-0.411-0.569-0.695-0.988-0.613
		c-0.418,0.082-0.734,0.518-0.682,0.941c-0.14-0.408-0.641-0.649-1.047-0.504c-0.406,0.145-0.641,0.649-0.491,1.053
		c-0.131-0.359-0.569-0.572-0.933-0.454c-0.363,0.118-0.592,0.548-0.487,0.916"/>
	
		<path style="fill:#FDFBD2;stroke:#6F1F46;stroke-width:1.1314;stroke-linecap:round;stroke-linejoin:round;stroke-miterlimit:10;" d="
		M147.938,186.087c-0.063-0.397,0.059-0.827,0.346-1.107c0.288-0.281,0.741-0.391,1.114-0.242c0.373,0.149,0.631,0.564,0.567,0.961
		c0.144-0.674,0.868-1.168,1.548-1.057c0.681,0.111,1.21,0.809,1.133,1.494"/>
	
		<path style="fill:#FDFBD2;stroke:#6F1F46;stroke-width:1.1314;stroke-linecap:round;stroke-linejoin:round;stroke-miterlimit:10;" d="
		M159.63,174.396c-0.063-0.397,0.059-0.827,0.346-1.107c0.287-0.281,0.741-0.391,1.114-0.242s0.631,0.564,0.567,0.961
		c0.144-0.674,0.868-1.168,1.548-1.057s1.21,0.809,1.133,1.494"/>
	
		<path style="fill:#FDFBD2;stroke:#6F1F46;stroke-width:1.1314;stroke-linecap:round;stroke-linejoin:round;stroke-miterlimit:10;" d="
		M135.475,192.394c0.192-0.491,0.044-1.094-0.354-1.44c-0.398-0.346-1.016-0.408-1.475-0.15c-0.112-0.411-0.569-0.695-0.988-0.613
		c-0.418,0.082-0.734,0.518-0.682,0.941c-0.14-0.408-0.641-0.649-1.047-0.504c-0.406,0.145-0.641,0.649-0.491,1.053
		c-0.131-0.359-0.569-0.572-0.933-0.454c-0.363,0.118-0.592,0.548-0.487,0.916"/>
	
		<path style="fill:#FDFBD2;stroke:#6F1F46;stroke-width:1.1314;stroke-linecap:round;stroke-linejoin:round;stroke-miterlimit:10;" d="
		M140.584,205.887c-0.063-0.397,0.059-0.827,0.346-1.107c0.288-0.281,0.741-0.391,1.114-0.242c0.373,0.149,0.631,0.564,0.567,0.961
		c0.144-0.674,0.868-1.168,1.548-1.057c0.681,0.111,1.21,0.809,1.133,1.494"/>
	
		<path style="fill:#FDFBD2;stroke:#6F1F46;stroke-width:1.1314;stroke-linecap:round;stroke-linejoin:round;stroke-miterlimit:10;" d="
		M98.411,190.528c-0.247-0.317-0.348-0.752-0.232-1.137c0.116-0.385,0.46-0.7,0.859-0.75c0.399-0.05,0.825,0.19,0.961,0.568
		c-0.199-0.66,0.196-1.442,0.845-1.673c0.65-0.232,1.45,0.124,1.713,0.761"/>
	
		<path style="fill:#FDFBD2;stroke:#6F1F46;stroke-width:1.1314;stroke-linecap:round;stroke-linejoin:round;stroke-miterlimit:10;" d="
		M184.79,158.958c0.192-0.491,0.044-1.094-0.354-1.44s-1.016-0.408-1.475-0.15c-0.112-0.411-0.569-0.695-0.988-0.613
		c-0.418,0.082-0.734,0.518-0.682,0.941c-0.14-0.408-0.641-0.649-1.047-0.504c-0.406,0.145-0.641,0.649-0.491,1.053
		c-0.131-0.359-0.569-0.572-0.933-0.454c-0.363,0.118-0.592,0.548-0.487,0.916"/>
	
		<path style="fill:#FDFBD2;stroke:#6F1F46;stroke-width:1.1314;stroke-linecap:round;stroke-linejoin:round;stroke-miterlimit:10;" d="
		M179.947,191.45c0.192-0.491,0.044-1.094-0.354-1.44c-0.398-0.346-1.016-0.408-1.475-0.15c-0.112-0.411-0.569-0.695-0.988-0.613
		s-0.734,0.518-0.682,0.941c-0.14-0.408-0.641-0.649-1.047-0.504c-0.406,0.145-0.641,0.649-0.491,1.053
		c-0.131-0.359-0.569-0.572-0.933-0.454c-0.363,0.118-0.592,0.548-0.487,0.916"/>
	
		<path style="fill:#FDFBD2;stroke:#6F1F46;stroke-width:1.1314;stroke-linecap:round;stroke-linejoin:round;stroke-miterlimit:10;" d="
		M201.059,180.662c-0.063-0.397,0.059-0.827,0.346-1.107c0.288-0.281,0.741-0.391,1.114-0.242c0.373,0.149,0.631,0.564,0.567,0.961
		c0.144-0.674,0.868-1.168,1.548-1.057c0.681,0.111,1.21,0.809,1.133,1.494"/>
	
		<path style="fill:#FDFBD2;stroke:#6F1F46;stroke-width:1.1314;stroke-linecap:round;stroke-linejoin:round;stroke-miterlimit:10;" d="
		M205.063,160.113c0.22-0.337,0.598-0.573,1-0.588c0.402-0.015,0.811,0.208,0.988,0.569c0.177,0.361,0.089,0.842-0.225,1.093
		c0.56-0.403,1.427-0.283,1.857,0.256c0.43,0.539,0.353,1.412-0.164,1.868"/>
	
		<path style="fill:#FDFBD2;stroke:#6F1F46;stroke-width:1.001;stroke-linecap:round;stroke-linejoin:round;stroke-miterlimit:10;" d="
		M55.244,152.452c0.179-0.43,0.059-0.967-0.286-1.28c-0.345-0.313-0.891-0.38-1.302-0.16c-0.091-0.366-0.491-0.625-0.862-0.56
		s-0.659,0.445-0.621,0.82c-0.116-0.363-0.555-0.586-0.917-0.465s-0.579,0.562-0.454,0.922c-0.109-0.32-0.493-0.516-0.816-0.419
		s-0.534,0.474-0.448,0.801"/>
	
		<path style="fill:#FDFBD2;stroke:#6F1F46;stroke-width:1.001;stroke-linecap:round;stroke-linejoin:round;stroke-miterlimit:10;" d="
		M70.595,147.415c0.388-0.258,0.586-0.772,0.473-1.224c-0.113-0.452-0.53-0.811-0.994-0.856c0.127-0.355-0.061-0.793-0.406-0.945
		c-0.345-0.152-0.795,0.004-0.971,0.337c0.105-0.367-0.136-0.795-0.504-0.896s-0.794,0.146-0.89,0.515
		c0.087-0.327-0.123-0.703-0.446-0.802c-0.323-0.098-0.707,0.097-0.817,0.417"/>
	
		<path style="fill:#FDFBD2;stroke:#6F1F46;stroke-width:1.001;stroke-linecap:round;stroke-linejoin:round;stroke-miterlimit:10;" d="
		M44.603,142.454c-0.208-0.289-0.282-0.677-0.166-1.013s0.43-0.603,0.785-0.634s0.723,0.196,0.83,0.535
		c-0.154-0.59,0.222-1.268,0.804-1.451c0.582-0.183,1.278,0.159,1.489,0.731"/>
	
		<path style="fill:#FDFBD2;stroke:#6F1F46;stroke-width:1.001;stroke-linecap:round;stroke-linejoin:round;stroke-miterlimit:10;" d="
		M247.105,151.758c-0.179-0.43-0.059-0.967,0.286-1.28c0.345-0.313,0.891-0.38,1.302-0.16c0.091-0.366,0.491-0.625,0.862-0.56
		c0.371,0.065,0.659,0.445,0.621,0.82c0.116-0.363,0.555-0.586,0.917-0.465c0.362,0.121,0.579,0.562,0.454,0.922
		c0.109-0.32,0.493-0.517,0.816-0.419s0.534,0.474,0.448,0.801"/>
	
		<path style="fill:#FDFBD2;stroke:#6F1F46;stroke-width:1.001;stroke-linecap:round;stroke-linejoin:round;stroke-miterlimit:10;" d="
		M239.428,146.721c-0.388-0.258-0.586-0.772-0.473-1.224s0.53-0.811,0.994-0.856c-0.127-0.355,0.061-0.793,0.406-0.945
		c0.345-0.152,0.795,0.004,0.971,0.337c-0.105-0.366,0.136-0.795,0.504-0.896c0.368-0.101,0.794,0.146,0.89,0.515
		c-0.087-0.327,0.123-0.703,0.446-0.802c0.323-0.098,0.707,0.097,0.817,0.417"/>
	
		<path style="fill:#FDFBD2;stroke:#6F1F46;stroke-width:1.001;stroke-linecap:round;stroke-linejoin:round;stroke-miterlimit:10;" d="
		M257.745,141.76c0.208-0.289,0.282-0.677,0.166-1.013c-0.116-0.336-0.43-0.603-0.785-0.634s-0.723,0.196-0.83,0.535
		c0.154-0.59-0.222-1.268-0.804-1.451c-0.582-0.183-1.278,0.159-1.489,0.731"/>
	
		<ellipse transform="matrix(0.9706 -0.2408 0.2408 0.9706 -8.7531 30.256)" style="fill:#E1A946;stroke:#6F1F46;stroke-width:1.6874;stroke-linecap:round;stroke-linejoin:round;stroke-miterlimit:10;" cx="119.439" cy="50.948" rx="25.974" ry="10.998"/>
	
		<path style="fill:#E1A946;stroke:#6F1F46;stroke-width:1.6874;stroke-linecap:round;stroke-linejoin:round;stroke-miterlimit:10;" d="
		M128.915,27.737l-28.701,7.12l4.715,18.455c0.832,3.356,7.932,4.482,15.858,2.516c7.925-1.966,13.675-6.28,12.843-9.636
		L128.915,27.737z"/>
	
		<ellipse transform="matrix(0.9706 -0.2408 0.2408 0.9706 -3.7442 28.333)" style="fill:#E1A946;stroke:#6F1F46;stroke-width:1.6874;stroke-linecap:round;stroke-linejoin:round;stroke-miterlimit:10;" cx="114.074" cy="29.489" rx="14.785" ry="6.26"/>
</g>
</svg>
