<?xml version="1.0" encoding="iso-8859-1"?>
<!-- Generator: Adobe Illustrator 27.8.1, SVG Export Plug-In . SVG Version: 6.00 Build 0)  -->
<svg version="1.1" xmlns="http://www.w3.org/2000/svg" xmlns:xlink="http://www.w3.org/1999/xlink" x="0px" y="0px"
	 viewBox="0 0 80 80" style="enable-background:new 0 0 80 80;" xml:space="preserve">
<g id="Legs">
</g>
<g id="Laag_1">
</g>
<g id="Socks">
</g>
<g id="Shoes">
</g>
<g id="left_arm">
	<g>
		
			<rect x="21.552" y="17.705" style="fill:#568C6D;stroke:#6F1F46;stroke-width:0.9865;stroke-linecap:round;stroke-linejoin:round;stroke-miterlimit:10;" width="14.402" height="17.954"/>
		
			<rect x="43.846" y="17.705" style="fill:#5A7EAE;stroke:#6F1F46;stroke-width:1.0851;stroke-linecap:round;stroke-linejoin:round;stroke-miterlimit:10;" width="14.402" height="17.954"/>
		
			<path style="fill:#FDFBD2;stroke:#6F1F46;stroke-width:0.9865;stroke-linecap:round;stroke-linejoin:round;stroke-miterlimit:10;" d="
			M62.027,43.482"/>
		
			<path style="fill:#FDFBD2;stroke:#6F1F46;stroke-width:0.9865;stroke-linecap:round;stroke-linejoin:round;stroke-miterlimit:10;" d="
			M51.855,41.031"/>
		
			<path style="fill:#F0F0F0;stroke:#6F1F46;stroke-width:0.9865;stroke-linecap:round;stroke-linejoin:round;stroke-miterlimit:10;" d="
			M36.744,31.916c0,0-10.909,2.898-15.946-2.573v14.927h15.946V31.916z"/>
		
			<line style="fill:none;stroke:#6F1F46;stroke-width:0.9865;stroke-linecap:round;stroke-linejoin:round;stroke-miterlimit:10;" x1="23.491" y1="31.84" x2="23.491" y2="44.01"/>
		
			<line style="fill:none;stroke:#6F1F46;stroke-width:0.9865;stroke-linecap:round;stroke-linejoin:round;stroke-miterlimit:10;" x1="27.054" y1="32.568" x2="27.054" y2="44.041"/>
		
			<path style="fill:none;stroke:#6F1F46;stroke-width:0.9865;stroke-linecap:round;stroke-linejoin:round;stroke-miterlimit:10;" d="
			M30.618,43.887v-10.79V43.887z"/>
		
			<line style="fill:none;stroke:#6F1F46;stroke-width:0.9865;stroke-linecap:round;stroke-linejoin:round;stroke-miterlimit:10;" x1="34.181" y1="32.634" x2="34.181" y2="44.141"/>
		
			<path style="fill:#F0F0F0;stroke:#6F1F46;stroke-width:0.9865;stroke-linecap:round;stroke-linejoin:round;stroke-miterlimit:10;" d="
			M43.31,31.916c0,0,10.909,2.898,15.946-2.573v14.927H43.31V31.916z"/>
		
			<line style="fill:none;stroke:#6F1F46;stroke-width:0.9865;stroke-linecap:round;stroke-linejoin:round;stroke-miterlimit:10;" x1="56.564" y1="31.84" x2="56.564" y2="44.01"/>
		
			<line style="fill:none;stroke:#6F1F46;stroke-width:0.9865;stroke-linecap:round;stroke-linejoin:round;stroke-miterlimit:10;" x1="53" y1="32.568" x2="53" y2="44.041"/>
		
			<path style="fill:none;stroke:#6F1F46;stroke-width:0.9865;stroke-linecap:round;stroke-linejoin:round;stroke-miterlimit:10;" d="
			M49.437,43.887v-10.79V43.887z"/>
		
			<line style="fill:none;stroke:#6F1F46;stroke-width:0.9865;stroke-linecap:round;stroke-linejoin:round;stroke-miterlimit:10;" x1="46.343" y1="32.634" x2="46.343" y2="44.141"/>
		
			<path style="fill:#5A7EAE;stroke:#6F1F46;stroke-width:1.0851;stroke-linecap:round;stroke-linejoin:round;stroke-miterlimit:10;" d="
			M21.655,50.872c0.464-2.732-1.267-5.709-3.463-7.398c-2.196-1.69-5.469-1.922-8.128-1.144s-4.913,2.622-6.211,5.07
			S2.186,55.247,2.65,57.978c0.181,1.066,0.529,2.181,1.373,2.857c0.743,0.594,1.738,0.742,2.682,0.854
			c8.118,0.96,16.37,0.778,24.437-0.54c1.456-0.238,2.976-0.545,4.108-1.49c1.08-0.902,1.664-2.289,1.869-3.681
			c0.361-2.444,0.065-12.442-0.049-14.91c-2.717-1.233-7.973-1.72-9.693-1.72c-1.374,0-5.192,0-6.566,0
			c-1.251,0-2.658,0.625-2.614,4.134"/>
		
			<path style="fill:#568C6D;stroke:#6F1F46;stroke-width:0.9865;stroke-linecap:round;stroke-linejoin:round;stroke-miterlimit:10;" d="
			M18.522,43.611c0.447,2.014,4.313-0.5,6.181,0.488c1.184,0.627,2.401,1.597,3.709,1.274c0.894-0.221,1.547-1.014,2.443-1.23
			c0.795-0.191,1.62,0.107,2.369,0.428c0.749,0.321,1.53,0.678,2.345,0.607c0.815-0.071,1.635-0.77,1.478-1.548l0.02-2.586
			c0,0-3.058-2.024-16.253-1.5C20.813,39.545,17.6,39.458,18.522,43.611z"/>
		<path style="fill:#FFFFFF;stroke:#6F1F46;stroke-width:0.9865;stroke-miterlimit:10;" d="M15.849,45.919
			c-0.385,0.182-0.793,0.448-0.873,0.867c-0.102,0.534,0.415,1.018,0.949,1.117c0.535,0.099,1.078-0.066,1.612-0.168
			c1.567-0.299,3.234-0.045,4.64,0.708c0.366,0.196,0.72,0.427,1.118,0.546c0.988,0.297,2.049-0.583,1.273-1.501
			c-0.642-0.76-1.792-1.361-2.705-1.716C19.946,45.027,17.719,45.034,15.849,45.919z"/>
		<path style="fill:#FFFFFF;stroke:#6F1F46;stroke-width:0.9865;stroke-miterlimit:10;" d="M16.862,43.833
			c-0.385,0.182-0.793,0.448-0.873,0.867c-0.102,0.534,0.415,1.018,0.949,1.117c0.535,0.099,1.077-0.066,1.612-0.168
			c1.567-0.299,3.234-0.045,4.64,0.708c0.366,0.196,0.72,0.427,1.118,0.546c0.988,0.297,2.049-0.583,1.273-1.501
			c-0.642-0.76-1.792-1.361-2.705-1.716C20.959,42.941,18.732,42.948,16.862,43.833z"/>
		
			<path style="fill:#5A7EAE;stroke:#6F1F46;stroke-width:1.0851;stroke-linecap:round;stroke-linejoin:round;stroke-miterlimit:10;" d="
			M35.251,59.658c-1.132,0.946-2.652,1.253-4.108,1.49c-8.067,1.318-16.32,1.501-24.437,0.54c-0.945-0.112-1.939-0.26-2.682-0.854
			c-0.844-0.675-1.192-1.791-1.373-2.857c-0.464-2.732-0.096-8.13,1.203-10.578s3.552-4.291,6.211-5.07s5.932-0.546,8.128,1.144
			c2.196,1.69,3.927,4.666,3.463,7.398"/>
		
			<path style="fill:#568C6D;stroke:#6F1F46;stroke-width:0.9865;stroke-linecap:round;stroke-linejoin:round;stroke-miterlimit:10;" d="
			M36.554,56.167c-0.391-1.175-1.899-1.859-2.952-1.207c-0.508,0.314-0.844,0.837-1.25,1.275s-0.974,0.822-1.561,0.712
			c-0.808-0.151-1.179-1.108-1.884-1.53c-0.77-0.461-1.776-0.192-2.55,0.263c-0.774,0.455-1.456,1.084-2.302,1.385
			c-1.143,0.407-2.414,0.153-3.562-0.241s-2.263-0.927-3.466-1.086c-3.401-0.45-6.736,2.155-10.088,1.424
			c-0.827-0.18-1.631-0.562-2.475-0.502S2.74,57.505,3.01,58.307c0,0-0.95,3.672,9.342,3.667
			C12.352,61.974,39.021,63.583,36.554,56.167z"/>
		
			<path style="fill:#5A7EAE;stroke:#6F1F46;stroke-width:1.0851;stroke-linecap:round;stroke-linejoin:round;stroke-miterlimit:10;" d="
			M58.345,50.872c-0.464-2.732,1.267-5.709,3.463-7.398c2.196-1.69,5.469-1.922,8.128-1.144s4.913,2.622,6.211,5.07
			c1.298,2.448,1.666,7.847,1.203,10.578c-0.181,1.066-0.529,2.181-1.373,2.857c-0.743,0.594-1.738,0.742-2.682,0.854
			c-8.118,0.96-16.37,0.778-24.437-0.54c-1.456-0.238-2.976-0.545-4.108-1.49c-1.08-0.902-1.664-2.289-1.869-3.681
			c-0.361-2.444-0.065-12.442,0.049-14.91c2.717-1.233,7.973-1.72,9.693-1.72c1.374,0,5.192,0,6.566,0
			c1.251,0,2.658,0.625,2.614,4.134"/>
		
			<path style="fill:#568C6D;stroke:#6F1F46;stroke-width:0.9865;stroke-linecap:round;stroke-linejoin:round;stroke-miterlimit:10;" d="
			M61.478,43.611c-0.447,2.014-4.313-0.5-6.181,0.488c-1.184,0.627-2.401,1.597-3.709,1.274c-0.894-0.221-1.547-1.014-2.443-1.23
			c-0.795-0.191-1.62,0.107-2.369,0.428c-0.749,0.321-1.53,0.678-2.345,0.607c-0.815-0.071-1.635-0.77-1.478-1.548l-0.02-2.586
			c0,0,3.058-2.024,16.253-1.5C59.187,39.545,62.4,39.458,61.478,43.611z"/>
		<path style="fill:#FFFFFF;stroke:#6F1F46;stroke-width:0.9865;stroke-miterlimit:10;" d="M64.151,45.919
			c0.385,0.182,0.793,0.448,0.873,0.867c0.102,0.534-0.415,1.018-0.949,1.117c-0.535,0.099-1.077-0.066-1.612-0.168
			c-1.567-0.299-3.234-0.045-4.64,0.708c-0.366,0.196-0.72,0.427-1.118,0.546c-0.988,0.297-2.049-0.583-1.273-1.501
			c0.642-0.76,1.792-1.361,2.705-1.716C60.054,45.027,62.281,45.034,64.151,45.919z"/>
		<path style="fill:#FFFFFF;stroke:#6F1F46;stroke-width:0.9865;stroke-miterlimit:10;" d="M63.138,43.833
			c0.385,0.182,0.793,0.448,0.873,0.867c0.102,0.534-0.415,1.018-0.949,1.117c-0.535,0.099-1.078-0.066-1.612-0.168
			c-1.567-0.299-3.234-0.045-4.64,0.708c-0.366,0.196-0.72,0.427-1.118,0.546c-0.988,0.297-2.049-0.583-1.273-1.501
			c0.642-0.76,1.792-1.361,2.705-1.716C59.041,42.941,61.268,42.948,63.138,43.833z"/>
		
			<path style="fill:#5A7EAE;stroke:#6F1F46;stroke-width:1.0851;stroke-linecap:round;stroke-linejoin:round;stroke-miterlimit:10;" d="
			M44.749,59.658c1.132,0.946,2.652,1.253,4.108,1.49c8.067,1.318,16.32,1.501,24.437,0.54c0.945-0.112,1.939-0.26,2.682-0.854
			c0.844-0.675,1.192-1.791,1.373-2.857c0.464-2.732,0.096-8.13-1.203-10.578c-1.298-2.448-3.552-4.291-6.211-5.07
			s-5.932-0.546-8.128,1.144c-2.196,1.69-3.927,4.666-3.463,7.398"/>
		
			<path style="fill:#568C6D;stroke:#6F1F46;stroke-width:0.9865;stroke-linecap:round;stroke-linejoin:round;stroke-miterlimit:10;" d="
			M43.446,56.167c0.391-1.175,1.899-1.859,2.952-1.207c0.508,0.314,0.844,0.837,1.25,1.275s0.974,0.822,1.561,0.712
			c0.808-0.151,1.179-1.108,1.884-1.53c0.77-0.461,1.776-0.192,2.55,0.263c0.774,0.455,1.456,1.084,2.302,1.385
			c1.143,0.407,2.414,0.153,3.562-0.241s2.263-0.927,3.466-1.086c3.401-0.45,6.736,2.155,10.088,1.424
			c0.827-0.18,1.631-0.562,2.475-0.502c0.844,0.06,1.724,0.846,1.454,1.648c0,0,0.95,3.672-9.342,3.667
			C67.648,61.974,40.979,63.583,43.446,56.167z"/>
		
			<path style="fill:#568C6D;stroke:#6F1F46;stroke-width:0.9865;stroke-linecap:round;stroke-linejoin:round;stroke-miterlimit:10;" d="
			M22.311,26.713c-0.541,0.064-1.117-0.124-1.482-0.529c-0.365-0.405-0.489-1.025-0.267-1.523c0.222-0.498,0.799-0.824,1.334-0.717
			c-0.906-0.232-1.536-1.24-1.349-2.156c0.187-0.917,1.162-1.596,2.087-1.454"/>
	</g>
</g>
</svg>
