<?xml version="1.0" encoding="iso-8859-1"?>
<!-- Generator: Adobe Illustrator 27.8.1, SVG Export Plug-In . SVG Version: 6.00 Build 0)  -->
<svg version="1.1" xmlns="http://www.w3.org/2000/svg" xmlns:xlink="http://www.w3.org/1999/xlink" x="0px" y="0px"
	 viewBox="0 0 80 80" style="enable-background:new 0 0 80 80;" xml:space="preserve">
<g id="Legs">
</g>
<g id="Laag_1">
</g>
<g id="Socks">
</g>
<g id="Shoes">
</g>
<g id="left_arm">
	<g>
		
			<rect x="22.31" y="16.692" style="fill:#568C6D;stroke:#6F1F46;stroke-width:0.9506;stroke-linecap:round;stroke-linejoin:round;stroke-miterlimit:10;" width="13.879" height="17.301"/>
		
			<rect x="43.793" y="16.692" style="fill:#5A7EAE;stroke:#6F1F46;stroke-width:1.0456;stroke-linecap:round;stroke-linejoin:round;stroke-miterlimit:10;" width="13.879" height="17.301"/>
		
			<path style="fill:#FDFBD2;stroke:#6F1F46;stroke-width:0.9506;stroke-linecap:round;stroke-linejoin:round;stroke-miterlimit:10;" d="
			M61.313,41.531"/>
		
			<path style="fill:#FDFBD2;stroke:#6F1F46;stroke-width:0.9506;stroke-linecap:round;stroke-linejoin:round;stroke-miterlimit:10;" d="
			M51.511,39.169"/>
		
			<path style="fill:#F0F0F0;stroke:#6F1F46;stroke-width:0.9506;stroke-linecap:round;stroke-linejoin:round;stroke-miterlimit:10;" d="
			M36.95,30.386c0,0-10.512,2.793-15.366-2.48V42.29H36.95V30.386z"/>
		
			<line style="fill:none;stroke:#6F1F46;stroke-width:0.9506;stroke-linecap:round;stroke-linejoin:round;stroke-miterlimit:10;" x1="24.179" y1="30.313" x2="24.179" y2="42.04"/>
		
			<line style="fill:none;stroke:#6F1F46;stroke-width:0.9506;stroke-linecap:round;stroke-linejoin:round;stroke-miterlimit:10;" x1="27.613" y1="31.014" x2="27.613" y2="42.07"/>
		
			<path style="fill:none;stroke:#6F1F46;stroke-width:0.9506;stroke-linecap:round;stroke-linejoin:round;stroke-miterlimit:10;" d="
			M31.046,41.921V31.524V41.921z"/>
		
			<line style="fill:none;stroke:#6F1F46;stroke-width:0.9506;stroke-linecap:round;stroke-linejoin:round;stroke-miterlimit:10;" x1="34.48" y1="31.078" x2="34.48" y2="42.166"/>
		
			<path style="fill:#F0F0F0;stroke:#6F1F46;stroke-width:0.9506;stroke-linecap:round;stroke-linejoin:round;stroke-miterlimit:10;" d="
			M43.277,30.386c0,0,10.512,2.793,15.366-2.48V42.29H43.277V30.386z"/>
		
			<line style="fill:none;stroke:#6F1F46;stroke-width:0.9506;stroke-linecap:round;stroke-linejoin:round;stroke-miterlimit:10;" x1="56.049" y1="30.313" x2="56.049" y2="42.04"/>
		
			<line style="fill:none;stroke:#6F1F46;stroke-width:0.9506;stroke-linecap:round;stroke-linejoin:round;stroke-miterlimit:10;" x1="52.615" y1="31.014" x2="52.615" y2="42.07"/>
		
			<path style="fill:none;stroke:#6F1F46;stroke-width:0.9506;stroke-linecap:round;stroke-linejoin:round;stroke-miterlimit:10;" d="
			M49.181,41.921V31.524V41.921z"/>
		
			<line style="fill:none;stroke:#6F1F46;stroke-width:0.9506;stroke-linecap:round;stroke-linejoin:round;stroke-miterlimit:10;" x1="46.2" y1="31.078" x2="46.2" y2="42.166"/>
		
			<path style="fill:#FFFFFF;stroke:#6F1F46;stroke-width:0.9506;stroke-linecap:round;stroke-linejoin:round;stroke-miterlimit:10;" d="
			M4.49,59.47c0.09,1.029,0.486,2.073,1.281,2.732c0.926,0.767,2.21,0.894,3.41,0.962c7.359,0.422,14.77-0.084,22.004-1.503
			c1.842-0.361,3.747-0.816,5.197-2.008c0.693-0.57,1.266-1.311,1.531-2.168c0.265-0.858,0.195-1.836-0.288-2.593
			c-0.473-0.742-1.293-1.209-2.143-1.433s-1.742-0.232-2.621-0.232c-8.331,0.002-16.662,0.566-24.918,1.688
			c-0.968,0.132-2.494,0.306-3.069,1.232C4.369,56.961,4.411,58.562,4.49,59.47z"/>
		
			<path style="fill:#5A7EAE;stroke:#6F1F46;stroke-width:1.0456;stroke-linecap:round;stroke-linejoin:round;stroke-miterlimit:10;" d="
			M22.41,48.709c0.447-2.632-1.221-5.501-3.337-7.129s-5.27-1.852-7.832-1.102c-2.563,0.75-4.734,2.527-5.985,4.886
			s-1.606,7.561-1.159,10.194c0.174,1.027,0.51,2.102,1.323,2.753c0.716,0.573,1.674,0.715,2.585,0.823
			c7.823,0.925,15.775,0.75,23.549-0.521c1.403-0.229,2.868-0.525,3.959-1.436c1.041-0.87,1.603-2.206,1.801-3.547
			c0.348-2.355,0.063-11.989-0.048-14.367c-2.618-1.188-7.683-1.657-9.34-1.657c-1.324,0-5.003,0-6.327,0
			c-1.205,0-2.561,0.603-2.519,3.984"/>
		
			<path style="fill:#FFFFFF;stroke:#6F1F46;stroke-width:0.9506;stroke-linecap:round;stroke-linejoin:round;stroke-miterlimit:10;" d="
			M37.348,41.531l-18.177-1.518l8.035-2.466c0,0,8.854,0.52,10.059,1.714L37.348,41.531z"/>
		
			<path style="fill:#5A7EAE;stroke:#6F1F46;stroke-width:1.0456;stroke-linecap:round;stroke-linejoin:round;stroke-miterlimit:10;" d="
			M20.995,40.313c-0.011-1.17-0.001-3.777,0.285-4.988c0.089-0.377,0.51-0.607,0.949-0.53l8.735,1.541
			c0.439,0.077,0.75,0.437,0.71,0.823c-0.132,1.281-0.442,4.025-0.789,5.292c-0.105,0.384-0.548,0.606-0.994,0.503l-8.232-1.9
			C21.274,40.965,20.999,40.658,20.995,40.313z"/>
		
			<path style="fill:#5A7EAE;stroke:#6F1F46;stroke-width:1.0456;stroke-linecap:round;stroke-linejoin:round;stroke-miterlimit:10;" d="
			M19.171,40.013c-0.011-1.17-0.001-3.777,0.285-4.988c0.089-0.377,0.51-0.607,0.949-0.53l8.735,1.541
			c0.439,0.077,0.75,0.437,0.71,0.823c-0.132,1.281-0.442,4.025-0.789,5.292c-0.105,0.384-0.548,0.606-0.994,0.503l-8.232-1.9
			C19.45,40.665,19.174,40.358,19.171,40.013z"/>
		<path style="fill:#FFFFFF;stroke:#6F1F46;stroke-width:0.9506;stroke-miterlimit:10;" d="M28.351,43.003
			c0.358,0.479,0.43,1.141,0.183,1.681c-0.247,0.539-0.804,0.936-1.413,1.005c0.367,0.914-0.267,1.973-1.151,2.46
			c-0.885,0.487-1.946,0.544-2.964,0.589L21.93,45.59l3.751-3.327L28.351,43.003z"/>
		<path style="fill:#FFFFFF;stroke:#6F1F46;stroke-width:0.9506;stroke-miterlimit:10;" d="M16.815,43.879
			c-0.371,0.176-0.764,0.432-0.842,0.835c-0.099,0.515,0.4,0.981,0.915,1.076c0.515,0.095,1.038-0.063,1.553-0.162
			c1.51-0.288,3.116-0.043,4.471,0.682c0.353,0.189,0.694,0.411,1.078,0.526c0.952,0.286,1.974-0.561,1.226-1.447
			c-0.618-0.732-1.727-1.312-2.606-1.654C20.763,43.02,18.617,43.027,16.815,43.879z"/>
		<path style="fill:#FFFFFF;stroke:#6F1F46;stroke-width:0.9506;stroke-miterlimit:10;" d="M17.791,41.87
			c-0.371,0.176-0.764,0.432-0.842,0.835c-0.099,0.515,0.4,0.981,0.915,1.076c0.515,0.095,1.038-0.063,1.553-0.162
			c1.51-0.288,3.116-0.043,4.471,0.682c0.353,0.189,0.694,0.411,1.078,0.526c0.952,0.286,1.974-0.561,1.226-1.447
			c-0.618-0.732-1.727-1.312-2.606-1.654C21.739,41.01,19.593,41.017,17.791,41.87z"/>
		
			<path style="fill:#5A7EAE;stroke:#6F1F46;stroke-width:1.0456;stroke-linecap:round;stroke-linejoin:round;stroke-miterlimit:10;" d="
			M22.41,49.413c0.447-2.632-1.221-6.071-3.337-7.699s-5.27-1.852-7.832-1.102c-2.563,0.75-4.734,2.337-5.985,4.696
			S3.649,52.868,4.096,55.5c0.174,1.027,0.51,2.102,1.323,2.753c0.716,0.573,1.674,0.715,2.585,0.823
			c7.823,0.925,15.775,0.75,23.549-0.521c1.403-0.229,2.868-0.525,3.959-1.436"/>
		
			<path style="fill:#FFFFFF;stroke:#6F1F46;stroke-width:0.9506;stroke-linecap:round;stroke-linejoin:round;stroke-miterlimit:10;" d="
			M4.108,55.46c5.566,1.457,15.87,1.306,21.455-0.077c0.337-0.083,0.686-0.173,1.026-0.037c0.158,0.063,0.294,0.183,0.355,0.342
			c0.151,0.395-0.192,0.723-0.403,1.054c-0.512,0.804-0.184,2.018,0.664,2.453c0,0-18.145,1.263-21.787-0.943h0
			c-0.641-0.697-1.074-1.559-1.253-2.488L4.108,55.46z"/>
		
			<path style="fill:#FFFFFF;stroke:#6F1F46;stroke-width:0.9506;stroke-linecap:round;stroke-linejoin:round;stroke-miterlimit:10;" d="
			M75.51,59.47c-0.09,1.029-0.486,2.073-1.281,2.732c-0.926,0.767-2.21,0.894-3.41,0.962c-7.359,0.422-14.77-0.084-22.004-1.503
			c-1.842-0.361-3.747-0.816-5.197-2.008c-0.693-0.57-1.266-1.311-1.531-2.168c-0.265-0.858-0.195-1.836,0.288-2.593
			c0.473-0.742,1.293-1.209,2.143-1.433s1.742-0.232,2.621-0.232c8.331,0.002,16.662,0.566,24.918,1.688
			c0.968,0.132,2.494,0.306,3.069,1.232C75.631,56.961,75.589,58.562,75.51,59.47z"/>
		
			<path style="fill:#5A7EAE;stroke:#6F1F46;stroke-width:1.0456;stroke-linecap:round;stroke-linejoin:round;stroke-miterlimit:10;" d="
			M57.59,48.709c-0.447-2.632,1.221-5.501,3.337-7.129s5.27-1.852,7.832-1.102c2.563,0.75,4.734,2.527,5.985,4.886
			c1.251,2.359,1.606,7.561,1.159,10.194c-0.174,1.027-0.51,2.102-1.323,2.753c-0.716,0.573-1.674,0.715-2.585,0.823
			c-7.823,0.925-15.775,0.75-23.549-0.521c-1.403-0.229-2.868-0.525-3.959-1.436c-1.041-0.87-1.603-2.206-1.801-3.547
			c-0.348-2.355-0.063-11.989,0.048-14.367c2.618-1.188,7.683-1.657,9.34-1.657c1.324,0,5.003,0,6.327,0
			c1.205,0,2.561,0.603,2.519,3.984"/>
		
			<path style="fill:#FFFFFF;stroke:#6F1F46;stroke-width:0.9506;stroke-linecap:round;stroke-linejoin:round;stroke-miterlimit:10;" d="
			M42.652,41.531l18.177-1.518l-8.035-2.466c0,0-8.854,0.52-10.059,1.714L42.652,41.531z"/>
		
			<path style="fill:#5A7EAE;stroke:#6F1F46;stroke-width:1.0456;stroke-linecap:round;stroke-linejoin:round;stroke-miterlimit:10;" d="
			M59.005,40.313c0.011-1.17,0.001-3.777-0.285-4.988c-0.089-0.377-0.51-0.607-0.949-0.53l-8.735,1.541
			c-0.439,0.077-0.75,0.437-0.71,0.823c0.132,1.281,0.442,4.025,0.789,5.292c0.105,0.384,0.548,0.606,0.994,0.503l8.232-1.9
			C58.726,40.965,59.001,40.658,59.005,40.313z"/>
		
			<path style="fill:#5A7EAE;stroke:#6F1F46;stroke-width:1.0456;stroke-linecap:round;stroke-linejoin:round;stroke-miterlimit:10;" d="
			M60.829,40.013c0.011-1.17,0.001-3.777-0.285-4.988c-0.089-0.377-0.51-0.607-0.949-0.53l-8.735,1.541
			c-0.439,0.077-0.75,0.437-0.71,0.823c0.132,1.281,0.442,4.025,0.789,5.292c0.105,0.384,0.548,0.606,0.994,0.503l8.232-1.9
			C60.55,40.665,60.826,40.358,60.829,40.013z"/>
		<path style="fill:#FFFFFF;stroke:#6F1F46;stroke-width:0.9506;stroke-miterlimit:10;" d="M51.649,43.003
			c-0.358,0.479-0.43,1.141-0.183,1.681s0.804,0.936,1.413,1.005c-0.367,0.914,0.267,1.973,1.151,2.46s1.946,0.544,2.964,0.589
			l1.076-3.149l-3.751-3.327L51.649,43.003z"/>
		<path style="fill:#FFFFFF;stroke:#6F1F46;stroke-width:0.9506;stroke-miterlimit:10;" d="M63.185,43.879
			c0.371,0.176,0.764,0.432,0.842,0.835c0.099,0.515-0.4,0.981-0.915,1.076c-0.515,0.095-1.038-0.063-1.553-0.162
			c-1.51-0.288-3.116-0.043-4.471,0.682c-0.353,0.189-0.694,0.411-1.078,0.526c-0.952,0.286-1.974-0.561-1.226-1.447
			c0.618-0.732,1.727-1.312,2.606-1.654C59.237,43.02,61.383,43.027,63.185,43.879z"/>
		<path style="fill:#FFFFFF;stroke:#6F1F46;stroke-width:0.9506;stroke-miterlimit:10;" d="M62.209,41.87
			c0.371,0.176,0.764,0.432,0.842,0.835c0.099,0.515-0.4,0.981-0.915,1.076c-0.515,0.095-1.038-0.063-1.553-0.162
			c-1.51-0.288-3.116-0.043-4.471,0.682c-0.353,0.189-0.694,0.411-1.078,0.526c-0.952,0.286-1.974-0.561-1.226-1.447
			c0.618-0.732,1.727-1.312,2.606-1.654C58.261,41.01,60.407,41.017,62.209,41.87z"/>
		
			<path style="fill:#5A7EAE;stroke:#6F1F46;stroke-width:1.0456;stroke-linecap:round;stroke-linejoin:round;stroke-miterlimit:10;" d="
			M57.59,49.413c-0.447-2.632,1.221-6.071,3.337-7.699s5.27-1.852,7.832-1.102c2.563,0.75,4.734,2.337,5.985,4.696
			c1.251,2.359,1.606,7.561,1.159,10.194c-0.174,1.027-0.51,2.102-1.323,2.753c-0.716,0.573-1.674,0.715-2.585,0.823
			c-7.823,0.925-15.775,0.75-23.549-0.521c-1.403-0.229-2.868-0.525-3.959-1.436"/>
		
			<path style="fill:#FFFFFF;stroke:#6F1F46;stroke-width:0.9506;stroke-linecap:round;stroke-linejoin:round;stroke-miterlimit:10;" d="
			M75.892,55.46c-5.566,1.457-15.87,1.306-21.455-0.077c-0.337-0.083-0.686-0.173-1.026-0.037c-0.158,0.063-0.294,0.183-0.355,0.342
			c-0.151,0.395,0.192,0.723,0.403,1.054c0.512,0.804,0.184,2.018-0.664,2.453c0,0,18.145,1.263,21.787-0.943h0
			c0.641-0.697,1.074-1.559,1.253-2.488L75.892,55.46z"/>
		
			<path style="fill:#FFFFFF;stroke:#6F1F46;stroke-width:0.9506;stroke-linecap:round;stroke-linejoin:round;stroke-miterlimit:10;" d="
			M22.137,39.33c-0.005-0.536,0-1.73,0.131-2.285c0.041-0.173,0.234-0.278,0.435-0.243l4.002,0.706
			c0.201,0.035,0.343,0.2,0.325,0.377c-0.061,0.587-0.203,1.844-0.362,2.425c-0.048,0.176-0.251,0.278-0.455,0.231l-3.772-0.871
			C22.265,39.629,22.138,39.488,22.137,39.33z"/>
		
			<path style="fill:#FFFFFF;stroke:#6F1F46;stroke-width:0.9506;stroke-linecap:round;stroke-linejoin:round;stroke-miterlimit:10;" d="
			M58.209,39.33c0.005-0.536,0-1.73-0.131-2.285c-0.041-0.173-0.234-0.278-0.435-0.243l-4.002,0.706
			c-0.201,0.035-0.343,0.2-0.325,0.377c0.061,0.587,0.203,1.844,0.362,2.425c0.048,0.176,0.251,0.278,0.455,0.231l3.772-0.871
			C58.081,39.629,58.208,39.488,58.209,39.33z"/>
		
			<path style="fill:#568C6D;stroke:#6F1F46;stroke-width:0.9506;stroke-linecap:round;stroke-linejoin:round;stroke-miterlimit:10;" d="
			M23.041,25.372c-0.522,0.062-1.077-0.12-1.428-0.51c-0.352-0.39-0.472-0.988-0.258-1.468c0.214-0.48,0.77-0.794,1.285-0.691
			c-0.873-0.224-1.48-1.195-1.3-2.078c0.18-0.883,1.12-1.538,2.011-1.401"/>
	</g>
</g>
</svg>
