<?xml version="1.0" encoding="iso-8859-1"?>
<!-- Generator: Adobe Illustrator 27.8.1, SVG Export Plug-In . SVG Version: 6.00 Build 0)  -->
<svg version="1.1" xmlns="http://www.w3.org/2000/svg" xmlns:xlink="http://www.w3.org/1999/xlink" x="0px" y="0px"
	 viewBox="0 0 80 80" style="enable-background:new 0 0 80 80;" xml:space="preserve">
<g id="Legs">
</g>
<g id="Laag_1">
</g>
<g id="Socks">
</g>
<g id="Shoes">
</g>
<g id="left_arm">
	<g>
		
			<rect x="22.405" y="16.817" style="fill:#568C6D;stroke:#6F1F46;stroke-width:0.9455;stroke-linecap:round;stroke-linejoin:round;stroke-miterlimit:10;" width="13.804" height="17.208"/>
		
			<rect x="43.773" y="16.817" style="fill:#5A7EAE;stroke:#6F1F46;stroke-width:1.04;stroke-linecap:round;stroke-linejoin:round;stroke-miterlimit:10;" width="13.804" height="17.208"/>
		
			<path style="fill:#FDFBD2;stroke:#6F1F46;stroke-width:0.9455;stroke-linecap:round;stroke-linejoin:round;stroke-miterlimit:10;" d="
			M61.198,41.523"/>
		
			<path style="fill:#FDFBD2;stroke:#6F1F46;stroke-width:0.9455;stroke-linecap:round;stroke-linejoin:round;stroke-miterlimit:10;" d="
			M51.449,39.174"/>
		
			<path style="fill:#F0F0F0;stroke:#6F1F46;stroke-width:0.9455;stroke-linecap:round;stroke-linejoin:round;stroke-miterlimit:10;" d="
			M36.967,30.437c0,0-10.456,2.778-15.284-2.466v14.307h15.284V30.437z"/>
		
			<line style="fill:none;stroke:#6F1F46;stroke-width:0.9455;stroke-linecap:round;stroke-linejoin:round;stroke-miterlimit:10;" x1="24.264" y1="30.365" x2="24.264" y2="42.029"/>
		
			<line style="fill:none;stroke:#6F1F46;stroke-width:0.9455;stroke-linecap:round;stroke-linejoin:round;stroke-miterlimit:10;" x1="27.679" y1="31.062" x2="27.679" y2="42.059"/>
		
			<path style="fill:none;stroke:#6F1F46;stroke-width:0.9455;stroke-linecap:round;stroke-linejoin:round;stroke-miterlimit:10;" d="
			M31.094,41.911V31.569V41.911z"/>
		
			<line style="fill:none;stroke:#6F1F46;stroke-width:0.9455;stroke-linecap:round;stroke-linejoin:round;stroke-miterlimit:10;" x1="34.51" y1="31.125" x2="34.51" y2="42.155"/>
		
			<path style="fill:#F0F0F0;stroke:#6F1F46;stroke-width:0.9455;stroke-linecap:round;stroke-linejoin:round;stroke-miterlimit:10;" d="
			M43.26,30.437c0,0,10.456,2.778,15.284-2.466v14.307H43.26V30.437z"/>
		
			<line style="fill:none;stroke:#6F1F46;stroke-width:0.9455;stroke-linecap:round;stroke-linejoin:round;stroke-miterlimit:10;" x1="55.963" y1="30.365" x2="55.963" y2="42.029"/>
		
			<line style="fill:none;stroke:#6F1F46;stroke-width:0.9455;stroke-linecap:round;stroke-linejoin:round;stroke-miterlimit:10;" x1="52.547" y1="31.062" x2="52.547" y2="42.059"/>
		
			<path style="fill:none;stroke:#6F1F46;stroke-width:0.9455;stroke-linecap:round;stroke-linejoin:round;stroke-miterlimit:10;" d="
			M49.132,41.911V31.569V41.911z"/>
		
			<line style="fill:none;stroke:#6F1F46;stroke-width:0.9455;stroke-linecap:round;stroke-linejoin:round;stroke-miterlimit:10;" x1="46.166" y1="31.125" x2="46.166" y2="42.155"/>
		
			<path style="fill:#FDFBD2;stroke:#6F1F46;stroke-width:1.04;stroke-linecap:round;stroke-linejoin:round;stroke-miterlimit:10;" d="
			M4.68,59.365c0.089,1.023,0.483,2.062,1.274,2.717c0.921,0.763,2.198,0.889,3.392,0.957c7.319,0.42,14.691-0.084,21.886-1.494
			c1.832-0.359,3.726-0.812,5.169-1.997c0.69-0.567,1.26-1.304,1.523-2.157c0.263-0.853,0.194-1.826-0.286-2.579
			c-0.471-0.738-1.286-1.202-2.132-1.425c-0.846-0.223-1.732-0.23-2.607-0.23c-8.287,0.002-16.573,0.563-24.784,1.679
			c-0.963,0.131-2.481,0.304-3.053,1.226C4.56,56.87,4.602,58.463,4.68,59.365z"/>
		
			<path style="fill:#FDFBD2;stroke:#6F1F46;stroke-width:1.04;stroke-linecap:round;stroke-linejoin:round;stroke-miterlimit:10;" d="
			M22.504,48.662c0.444-2.618-1.215-5.471-3.32-7.091c-2.105-1.62-5.241-1.843-7.79-1.096s-4.709,2.513-5.953,4.86
			c-1.244,2.346-1.597,7.521-1.153,10.139c0.173,1.021,0.507,2.091,1.316,2.738c0.712,0.569,1.665,0.712,2.571,0.819
			c7.781,0.92,15.69,0.746,23.422-0.518c1.395-0.228,2.853-0.522,3.938-1.429c1.035-0.865,1.595-2.194,1.792-3.528
			c0.346-2.343,0.062-11.925-0.047-14.29c-2.604-1.181-7.642-1.648-9.29-1.648c-1.317,0-4.976,0-6.293,0
			c-1.199,0-2.547,0.599-2.505,3.962"/>
		
			<path style="fill:#E1A946;stroke:#6F1F46;stroke-width:0.9455;stroke-linecap:round;stroke-linejoin:round;stroke-miterlimit:10;" d="
			M37.363,41.523l-18.08-1.51l7.992-2.452c0,0,8.806,0.517,10.005,1.705L37.363,41.523z"/>
		
			<path style="fill:#FDFBD2;stroke:#6F1F46;stroke-width:1.04;stroke-linecap:round;stroke-linejoin:round;stroke-miterlimit:10;" d="
			M21.097,40.311c-0.011-1.164-0.001-3.756,0.283-4.961c0.088-0.375,0.507-0.604,0.943-0.527l8.688,1.533
			c0.436,0.077,0.746,0.435,0.706,0.818c-0.132,1.275-0.44,4.003-0.785,5.263c-0.105,0.382-0.545,0.603-0.989,0.501l-8.188-1.89
			C21.375,40.96,21.101,40.654,21.097,40.311z"/>
		
			<path style="fill:#FDFBD2;stroke:#6F1F46;stroke-width:1.04;stroke-linecap:round;stroke-linejoin:round;stroke-miterlimit:10;" d="
			M19.283,40.013c-0.011-1.164-0.001-3.756,0.283-4.961c0.088-0.375,0.507-0.604,0.943-0.527l8.688,1.533
			c0.436,0.077,0.746,0.435,0.706,0.818c-0.132,1.275-0.44,4.003-0.785,5.263c-0.105,0.382-0.545,0.603-0.989,0.501l-8.188-1.89
			C19.56,40.661,19.286,40.356,19.283,40.013z"/>
		
			<path style="fill:#E1A946;stroke:#6F1F46;stroke-width:0.9455;stroke-linecap:round;stroke-linejoin:round;stroke-miterlimit:10;" d="
			M28.413,42.987c0.356,0.476,0.427,1.135,0.182,1.672s-0.8,0.931-1.405,1c0.365,0.909-0.265,1.963-1.145,2.447
			c-0.88,0.484-1.936,0.541-2.948,0.586l-1.07-3.132l3.731-3.309L28.413,42.987z"/>
		
			<path style="fill:#F0F0F0;stroke:#6F1F46;stroke-width:0.9455;stroke-linecap:round;stroke-linejoin:round;stroke-miterlimit:10;" d="
			M16.939,43.859c-0.369,0.175-0.76,0.429-0.837,0.831c-0.098,0.512,0.397,0.976,0.91,1.071c0.513,0.095,1.033-0.063,1.545-0.161
			c1.502-0.287,3.099-0.043,4.447,0.678c0.351,0.188,0.69,0.409,1.072,0.523c0.947,0.284,1.963-0.558,1.22-1.439
			c-0.615-0.728-1.717-1.305-2.592-1.645C20.866,43.004,18.731,43.011,16.939,43.859z"/>
		
			<path style="fill:#F0F0F0;stroke:#6F1F46;stroke-width:0.9455;stroke-linecap:round;stroke-linejoin:round;stroke-miterlimit:10;" d="
			M17.91,41.859c-0.369,0.175-0.76,0.429-0.837,0.831c-0.098,0.512,0.397,0.976,0.91,1.071c0.513,0.095,1.033-0.063,1.545-0.161
			c1.502-0.287,3.099-0.043,4.447,0.678c0.351,0.188,0.69,0.409,1.072,0.523c0.947,0.284,1.963-0.558,1.22-1.439
			c-0.615-0.728-1.717-1.305-2.592-1.645C21.837,41.005,19.702,41.011,17.91,41.859z"/>
		
			<path style="fill:#FDFBD2;stroke:#6F1F46;stroke-width:1.04;stroke-linecap:round;stroke-linejoin:round;stroke-miterlimit:10;" d="
			M22.504,49.362c0.444-2.618-1.215-6.039-3.32-7.658s-5.241-1.843-7.79-1.096s-4.709,2.324-5.953,4.67s-1.597,7.521-1.153,10.139
			c0.173,1.021,0.507,2.091,1.316,2.738c0.712,0.569,1.665,0.712,2.571,0.819c7.781,0.92,15.69,0.746,23.422-0.518
			c1.395-0.228,2.853-0.522,3.938-1.429"/>
		
			<path style="fill:#E1A946;stroke:#6F1F46;stroke-width:0.9455;stroke-linecap:round;stroke-linejoin:round;stroke-miterlimit:10;" d="
			M4.3,55.378c5.536,1.449,15.785,1.299,21.34-0.076c0.335-0.083,0.683-0.172,1.021-0.037c0.157,0.063,0.293,0.182,0.353,0.341
			c0.15,0.393-0.191,0.719-0.401,1.048c-0.509,0.8-0.183,2.007,0.661,2.44c0,0-18.048,1.257-21.67-0.938l0,0
			c-0.637-0.693-1.069-1.55-1.246-2.475L4.3,55.378z"/>
		
			<path style="fill:#FDFBD2;stroke:#6F1F46;stroke-width:1.04;stroke-linecap:round;stroke-linejoin:round;stroke-miterlimit:10;" d="
			M75.32,59.365c-0.089,1.023-0.483,2.062-1.274,2.717c-0.921,0.763-2.198,0.889-3.392,0.957c-7.319,0.42-14.691-0.084-21.886-1.494
			c-1.832-0.359-3.726-0.812-5.169-1.997c-0.69-0.567-1.26-1.304-1.523-2.157c-0.263-0.853-0.194-1.826,0.286-2.579
			c0.471-0.738,1.286-1.202,2.132-1.425c0.846-0.223,1.732-0.23,2.607-0.23c8.287,0.002,16.573,0.563,24.784,1.679
			c0.963,0.131,2.481,0.304,3.053,1.226C75.44,56.87,75.398,58.463,75.32,59.365z"/>
		
			<path style="fill:#FDFBD2;stroke:#6F1F46;stroke-width:1.04;stroke-linecap:round;stroke-linejoin:round;stroke-miterlimit:10;" d="
			M57.496,48.662c-0.444-2.618,1.215-5.471,3.32-7.091c2.105-1.62,5.241-1.843,7.79-1.096c2.549,0.746,4.709,2.513,5.953,4.86
			c1.244,2.346,1.597,7.521,1.153,10.139c-0.173,1.021-0.507,2.091-1.316,2.738c-0.712,0.569-1.665,0.712-2.571,0.819
			c-7.781,0.92-15.69,0.746-23.422-0.518c-1.395-0.228-2.853-0.522-3.938-1.429c-1.035-0.865-1.595-2.194-1.792-3.528
			c-0.346-2.343-0.062-11.925,0.047-14.29c2.604-1.181,7.642-1.648,9.29-1.648c1.317,0,4.976,0,6.293,0
			c1.199,0,2.547,0.599,2.505,3.962"/>
		
			<path style="fill:#E1A946;stroke:#6F1F46;stroke-width:0.9455;stroke-linecap:round;stroke-linejoin:round;stroke-miterlimit:10;" d="
			M42.637,41.523l18.08-1.51l-7.992-2.452c0,0-8.806,0.517-10.005,1.705L42.637,41.523z"/>
		
			<path style="fill:#FDFBD2;stroke:#6F1F46;stroke-width:1.04;stroke-linecap:round;stroke-linejoin:round;stroke-miterlimit:10;" d="
			M58.903,40.311c0.011-1.164,0.001-3.756-0.284-4.961c-0.088-0.375-0.507-0.604-0.943-0.527l-8.688,1.533
			c-0.436,0.077-0.746,0.435-0.706,0.818c0.132,1.275,0.44,4.003,0.785,5.263c0.105,0.382,0.545,0.603,0.989,0.501l8.188-1.89
			C58.625,40.96,58.899,40.654,58.903,40.311z"/>
		
			<path style="fill:#FDFBD2;stroke:#6F1F46;stroke-width:1.04;stroke-linecap:round;stroke-linejoin:round;stroke-miterlimit:10;" d="
			M60.717,40.013c0.011-1.164,0.001-3.756-0.284-4.961c-0.088-0.375-0.507-0.604-0.943-0.527l-8.688,1.533
			c-0.436,0.077-0.746,0.435-0.706,0.818c0.132,1.275,0.44,4.003,0.785,5.263c0.105,0.382,0.545,0.603,0.989,0.501l8.188-1.89
			C60.44,40.661,60.714,40.356,60.717,40.013z"/>
		
			<path style="fill:#E1A946;stroke:#6F1F46;stroke-width:0.9455;stroke-linecap:round;stroke-linejoin:round;stroke-miterlimit:10;" d="
			M51.587,42.987c-0.356,0.476-0.427,1.135-0.182,1.672c0.246,0.537,0.8,0.931,1.405,1c-0.365,0.909,0.265,1.963,1.145,2.447
			s1.936,0.541,2.948,0.586l1.07-3.132l-3.731-3.309L51.587,42.987z"/>
		<path style="fill:#FFFFFF;stroke:#6F1F46;stroke-width:0.9455;stroke-miterlimit:10;" d="M63.061,43.859
			c0.369,0.175,0.76,0.429,0.837,0.831c0.098,0.512-0.397,0.976-0.91,1.071c-0.513,0.095-1.033-0.063-1.545-0.161
			c-1.502-0.287-3.099-0.043-4.447,0.678c-0.351,0.188-0.69,0.409-1.072,0.523c-0.947,0.284-1.963-0.558-1.22-1.439
			c0.615-0.728,1.717-1.305,2.592-1.645C59.134,43.004,61.269,43.011,63.061,43.859z"/>
		<path style="fill:#FFFFFF;stroke:#6F1F46;stroke-width:0.9455;stroke-miterlimit:10;" d="M62.09,41.859
			c0.369,0.175,0.76,0.429,0.837,0.831c0.098,0.512-0.397,0.976-0.91,1.071c-0.513,0.095-1.033-0.063-1.545-0.161
			c-1.502-0.287-3.099-0.043-4.447,0.678c-0.351,0.188-0.69,0.409-1.072,0.523c-0.947,0.284-1.963-0.558-1.22-1.439
			c0.615-0.728,1.717-1.305,2.592-1.645C58.163,41.005,60.298,41.011,62.09,41.859z"/>
		
			<path style="fill:#FDFBD2;stroke:#6F1F46;stroke-width:1.04;stroke-linecap:round;stroke-linejoin:round;stroke-miterlimit:10;" d="
			M57.496,49.362c-0.444-2.618,1.215-6.039,3.32-7.658s5.241-1.843,7.79-1.096c2.549,0.746,4.709,2.324,5.953,4.67
			s1.597,7.521,1.153,10.139c-0.173,1.021-0.507,2.091-1.316,2.738c-0.712,0.569-1.665,0.712-2.571,0.819
			c-7.781,0.92-15.69,0.746-23.422-0.518c-1.395-0.228-2.853-0.522-3.938-1.429"/>
		
			<path style="fill:#E1A946;stroke:#6F1F46;stroke-width:0.9455;stroke-linecap:round;stroke-linejoin:round;stroke-miterlimit:10;" d="
			M75.7,55.378c-5.536,1.449-15.785,1.299-21.34-0.076c-0.335-0.083-0.683-0.172-1.021-0.037c-0.157,0.063-0.293,0.182-0.353,0.341
			c-0.15,0.393,0.191,0.719,0.401,1.048c0.509,0.8,0.183,2.007-0.661,2.44c0,0,18.048,1.257,21.67-0.938v0
			c0.637-0.693,1.069-1.55,1.246-2.475L75.7,55.378z"/>
		
			<path style="fill:#E1A946;stroke:#6F1F46;stroke-width:0.9455;stroke-linecap:round;stroke-linejoin:round;stroke-miterlimit:10;" d="
			M22.233,39.334c-0.005-0.533,0-1.721,0.13-2.273c0.041-0.172,0.232-0.277,0.432-0.242l3.981,0.702
			c0.2,0.035,0.342,0.199,0.323,0.375c-0.06,0.584-0.202,1.834-0.36,2.412c-0.048,0.175-0.25,0.276-0.453,0.229l-3.752-0.866
			C22.36,39.631,22.234,39.491,22.233,39.334z"/>
		
			<path style="fill:#E1A946;stroke:#6F1F46;stroke-width:0.9455;stroke-linecap:round;stroke-linejoin:round;stroke-miterlimit:10;" d="
			M58.112,39.334c0.005-0.533,0-1.721-0.13-2.273c-0.041-0.172-0.232-0.277-0.432-0.242l-3.981,0.702
			c-0.2,0.035-0.342,0.199-0.323,0.375c0.06,0.584,0.201,1.834,0.36,2.412c0.048,0.175,0.25,0.276,0.453,0.229l3.752-0.866
			C57.985,39.631,58.11,39.491,58.112,39.334z"/>
		
			<path style="fill:#568C6D;stroke:#6F1F46;stroke-width:0.9455;stroke-linecap:round;stroke-linejoin:round;stroke-miterlimit:10;" d="
			M23.132,25.451c-0.519,0.061-1.071-0.119-1.421-0.507s-0.469-0.983-0.256-1.46c0.213-0.477,0.766-0.79,1.278-0.687
			c-0.868-0.223-1.473-1.188-1.293-2.067s1.114-1.53,2-1.394"/>
	</g>
</g>
</svg>
