<?xml version="1.0" encoding="iso-8859-1"?>
<!-- Generator: Adobe Illustrator 27.8.1, SVG Export Plug-In . SVG Version: 6.00 Build 0)  -->
<svg version="1.1" xmlns="http://www.w3.org/2000/svg" xmlns:xlink="http://www.w3.org/1999/xlink" x="0px" y="0px"
	 viewBox="0 0 80 80" style="enable-background:new 0 0 80 80;" xml:space="preserve">
<g id="Legs">
</g>
<g id="Laag_1">
</g>
<g id="Socks">
</g>
<g id="Shoes">
</g>
<g id="left_arm">
	<g>
		
			<line style="fill:none;stroke:#FDFBD2;stroke-width:0.6215;stroke-miterlimit:10;" x1="35.312" y1="23.725" x2="35.312" y2="34.175"/>
		
			<path style="fill:#568C6D;stroke:#6F1F46;stroke-width:1.0359;stroke-linecap:round;stroke-linejoin:round;stroke-miterlimit:10;" d="
			M20.253,45.864L20.05,20.01h16.196V45.7c0,4.143,0,8.08-0.013,12.126c-0.003,0.928-0.149,1.967-0.867,2.555
			c-0.552,0.451-1.318,0.917-2.03,0.949c-2.739,0.122-5.476-0.029-8.218-0.049c-6.066-0.043-11.038,0.164-17.772-0.339
			c-1.047-0.078-2.109-0.746-2.786-1.548c-0.819-0.971-0.818-2.576-0.776-3.845c0.078-2.3,0.16-4.628,0.802-6.837
			c0.642-2.21,1.914-4.324,3.887-5.509c1.037-0.623,2.23-0.966,3.435-1.071c2.538-0.22,5.152,0.643,7.059,2.331
			c1.908,1.688,3.083,4.177,3.173,6.723"/>
		
			<path style="fill:#5A7EAE;stroke:#6F1F46;stroke-width:1.0668;stroke-linecap:round;stroke-linejoin:round;stroke-miterlimit:10;" d="
			M59.747,45.864L59.95,20.01H43.753V45.7c0,4.143,0,8.08,0.013,12.126c0.003,0.928,0.149,1.967,0.867,2.555
			c0.552,0.451,1.318,0.917,2.03,0.949c2.739,0.122,5.476-0.029,8.218-0.049c6.066-0.043,11.038,0.164,17.772-0.339
			c1.047-0.078,2.109-0.746,2.786-1.548c0.819-0.971,0.818-2.576,0.776-3.845c-0.078-2.3-0.16-4.628-0.802-6.837
			c-0.642-2.21-1.914-4.324-3.887-5.509c-1.037-0.623-2.23-0.966-3.435-1.071c-2.538-0.22-5.152,0.643-7.059,2.331
			c-1.908,1.688-3.083,4.177-3.173,6.723"/>
		
			<polygon style="fill:#FDFBD2;stroke:#6F1F46;stroke-width:1.1394;stroke-linecap:round;stroke-linejoin:round;stroke-miterlimit:10;" points="
			17.306,41.309 17.158,18.624 62.263,18.624 62.263,41.371 42.186,41.371 42.186,32.109 37.621,32.109 37.621,41.38 		"/>
		
			<circle style="fill:#FDFBD2;stroke:#6F1F46;stroke-width:1.1394;stroke-linecap:round;stroke-linejoin:round;stroke-miterlimit:10;" cx="39.856" cy="28.05" r="1.554"/>
		
			<circle style="fill:#FDFBD2;stroke:#6F1F46;stroke-width:1.1394;stroke-linecap:round;stroke-linejoin:round;stroke-miterlimit:10;" cx="39.856" cy="23.078" r="1.554"/>
		<path style="fill:none;stroke:#6F1F46;stroke-width:1.075;stroke-linecap:round;stroke-linejoin:round;stroke-miterlimit:10;" d="
			M24.559,19.096c-1.129,3.047-4.047,5.352-7.273,5.745"/>
		<path style="fill:none;stroke:#6F1F46;stroke-width:1.075;stroke-linecap:round;stroke-linejoin:round;stroke-miterlimit:10;" d="
			M54.265,19.096c1.129,3.047,4.047,5.352,7.273,5.745"/>
		<path style="fill:#5A7EAE;stroke:#6F1F46;stroke-width:0.7906;stroke-miterlimit:10;" d="M20.05,39.397"/>
		
			<path style="fill:#568C6D;stroke:#6F1F46;stroke-width:1.0359;stroke-linecap:round;stroke-linejoin:round;stroke-miterlimit:10;" d="
			M34.777,52.823c0.593,0.294,1.366,0.174,1.842-0.286s0.622-1.228,0.349-1.831c0.527-0.095,0.932-0.637,0.875-1.17
			c-0.057-0.533-0.569-0.976-1.104-0.957c0.526-0.131,0.882-0.732,0.745-1.256c-0.137-0.524-0.743-0.873-1.265-0.73
			c0.464-0.125,0.778-0.651,0.67-1.119s-0.622-0.802-1.094-0.71"/>
		
			<path style="fill:#568C6D;stroke:#6F1F46;stroke-width:1.0359;stroke-linecap:round;stroke-linejoin:round;stroke-miterlimit:10;" d="
			M7.769,44.379c-0.206-0.534-0.163-1.169,0.155-1.645s0.916-0.764,1.481-0.667s1.046,0.6,1.075,1.171
			c0.002-0.982,0.863-1.885,1.845-1.931c0.981-0.047,1.925,0.769,2.02,1.747"/>
	</g>
</g>
</svg>
