<?xml version="1.0" encoding="iso-8859-1"?>
<!-- Generator: Adobe Illustrator 27.8.1, SVG Export Plug-In . SVG Version: 6.00 Build 0)  -->
<svg version="1.1" xmlns="http://www.w3.org/2000/svg" xmlns:xlink="http://www.w3.org/1999/xlink" x="0px" y="0px"
	 viewBox="0 0 80 80" style="enable-background:new 0 0 80 80;" xml:space="preserve">
<g id="Legs">
</g>
<g id="Laag_1">
</g>
<g id="Socks">
</g>
<g id="Shoes">
</g>
<g id="left_arm">
	<g>
		
			<line style="fill:none;stroke:#FDFBD2;stroke-width:0.6162;stroke-miterlimit:10;" x1="35.352" y1="23.865" x2="35.352" y2="34.225"/>
		
			<path style="fill:#568C6D;stroke:#6F1F46;stroke-width:1.027;stroke-linecap:round;stroke-linejoin:round;stroke-miterlimit:10;" d="
			M20.422,45.814l-0.201-25.633h16.058v25.469c0,4.108,0,8.011-0.013,12.022c-0.003,0.92-0.148,1.951-0.859,2.533
			c-0.547,0.447-1.307,0.909-2.013,0.941c-2.716,0.121-5.429-0.029-8.148-0.048c-6.014-0.042-10.944,0.163-17.62-0.336
			c-1.038-0.078-2.091-0.74-2.762-1.535c-0.812-0.962-0.811-2.554-0.769-3.812c0.077-2.28,0.158-4.588,0.795-6.779
			s1.898-4.287,3.854-5.462c1.028-0.618,2.211-0.958,3.406-1.062c2.516-0.218,5.108,0.637,6.999,2.311s3.056,4.142,3.146,6.666"/>
		
			<path style="fill:#5A7EAE;stroke:#6F1F46;stroke-width:1.0577;stroke-linecap:round;stroke-linejoin:round;stroke-miterlimit:10;" d="
			M59.578,45.814l0.201-25.633H43.721v25.469c0,4.108,0,8.011,0.013,12.022c0.003,0.92,0.148,1.951,0.859,2.533
			c0.547,0.447,1.307,0.909,2.013,0.941c2.716,0.121,5.429-0.029,8.148-0.048c6.014-0.042,10.944,0.163,17.62-0.336
			c1.038-0.078,2.091-0.74,2.762-1.535c0.812-0.962,0.811-2.554,0.769-3.812c-0.077-2.28-0.158-4.588-0.795-6.779
			c-0.637-2.191-1.898-4.287-3.854-5.462c-1.028-0.618-2.211-0.958-3.406-1.062c-2.516-0.218-5.108,0.637-6.999,2.311
			c-1.891,1.674-3.056,4.142-3.146,6.666"/>
		
			<path style="fill:#EF7DAC;stroke:#6F1F46;stroke-width:1.0658;stroke-linecap:round;stroke-linejoin:round;stroke-miterlimit:10;" d="
			M17.353,18.807h44.719v19.271c0,1.812-1.469,3.281-3.281,3.281H45.448c-1.812,0-3.281-1.469-3.281-3.281v-5.902h-4.526v5.911
			c0,1.812-1.469,3.281-3.281,3.281H20.781c-1.805,0-3.271-1.458-3.281-3.263L17.353,18.807z"/>
		
			<path style="fill:none;stroke:#6F1F46;stroke-width:1.0658;stroke-linecap:round;stroke-linejoin:round;stroke-miterlimit:10;" d="
			M24.691,19.275c-1.119,3.021-4.013,5.306-7.211,5.696"/>
		
			<path style="fill:none;stroke:#6F1F46;stroke-width:1.0658;stroke-linecap:round;stroke-linejoin:round;stroke-miterlimit:10;" d="
			M54.143,19.275c1.119,3.021,4.013,5.306,7.211,5.696"/>
		
			<line style="fill:none;stroke:#6F1F46;stroke-width:1.0658;stroke-linecap:round;stroke-linejoin:round;stroke-miterlimit:10;" x1="39.862" y1="18.91" x2="39.862" y2="31.63"/>
		<path style="fill:#5A7EAE;stroke:#6F1F46;stroke-width:0.7838;stroke-miterlimit:10;" d="M20.221,39.402"/>
		
			<path style="fill:#568C6D;stroke:#6F1F46;stroke-width:1.027;stroke-linecap:round;stroke-linejoin:round;stroke-miterlimit:10;" d="
			M34.821,52.713c0.588,0.292,1.354,0.172,1.826-0.284s0.617-1.218,0.346-1.816c0.523-0.095,0.925-0.632,0.868-1.16
			c-0.057-0.528-0.564-0.968-1.095-0.949c0.521-0.13,0.875-0.726,0.739-1.246c-0.136-0.52-0.737-0.866-1.254-0.724
			c0.46-0.124,0.772-0.645,0.664-1.109s-0.617-0.795-1.084-0.704"/>
		
			<path style="fill:#568C6D;stroke:#6F1F46;stroke-width:1.027;stroke-linecap:round;stroke-linejoin:round;stroke-miterlimit:10;" d="
			M8.045,44.342c-0.204-0.53-0.162-1.159,0.153-1.631c0.315-0.472,0.909-0.757,1.468-0.661c0.559,0.096,1.037,0.594,1.066,1.161
			c0.002-0.974,0.856-1.868,1.829-1.915c0.973-0.046,1.909,0.763,2.003,1.732"/>
	</g>
</g>
</svg>
