<?xml version="1.0" encoding="iso-8859-1"?>
<!-- Generator: Adobe Illustrator 27.8.1, SVG Export Plug-In . SVG Version: 6.00 Build 0)  -->
<svg version="1.1" xmlns="http://www.w3.org/2000/svg" xmlns:xlink="http://www.w3.org/1999/xlink" x="0px" y="0px"
	 viewBox="0 0 80 80" style="enable-background:new 0 0 80 80;" xml:space="preserve">
<g id="Legs">
</g>
<g id="Laag_1">
	<g>
		<path style="fill:#9E366C;stroke:#6F1F46;stroke-width:0.9866;stroke-miterlimit:10;" d="M40,19.162l7.796-6.006l16.928,6.118
			c2.005,2.797,5.123,44.4,5.123,44.4l-7.573,0.175l-3.438-27.511c-0.016-0.13-0.245-0.149-0.298-0.025
			c-1.926,4.526,0.84,27.885,0.84,27.885C45.568,72.064,40,59.883,40,59.883s-5.568,12.181-19.378,4.315
			c0,0,2.766-23.36,0.84-27.885c-0.053-0.124-0.282-0.105-0.298,0.025l-3.438,27.511l-7.573-0.175c0,0,3.118-41.603,5.123-44.4
			l16.928-6.118L40,19.162z"/>
		<path style="fill:#FFFFFF;stroke:#6F1F46;stroke-width:0.9866;stroke-miterlimit:10;" d="M39.96,32.384l8.539-13.437
			c0.765-1.204,1.01-2.626,0.599-3.956c-0.203-0.656-0.556-1.292-1.159-1.717c-0.097-0.068-0.245-0.064-0.333,0.012l-7.646,6.605
			l-7.599-6.565c-0.102-0.089-0.283-0.078-0.367,0.022c-0.563,0.668-2.258,2.982-0.943,5.296L39.96,32.384z"/>
		<polygon style="fill:#1D70B7;stroke:#6F1F46;stroke-width:0.9866;stroke-miterlimit:10;" points="39.96,19.512 42.41,22.595 
			39.96,30.654 37.51,22.595 		"/>
	</g>
</g>
<g id="Socks">
</g>
<g id="Shoes">
</g>
<g id="left_arm">
</g>
</svg>
