<?xml version="1.0" encoding="iso-8859-1"?>
<!-- Generator: Adobe Illustrator 27.8.1, SVG Export Plug-In . SVG Version: 6.00 Build 0)  -->
<svg version="1.1" xmlns="http://www.w3.org/2000/svg" xmlns:xlink="http://www.w3.org/1999/xlink" x="0px" y="0px"
	 viewBox="0 0 80 80" style="enable-background:new 0 0 80 80;" xml:space="preserve">
<g id="Legs">
</g>
<g id="Laag_1">
</g>
<g id="Socks">
</g>
<g id="Shoes">
</g>
<g id="left_arm">
	<g>
		
			<line style="fill:none;stroke:#FDFBD2;stroke-width:0.6393;stroke-miterlimit:10;" x1="35.16" y1="23.248" x2="35.16" y2="33.997"/>
		
			<path style="fill:#568C6D;stroke:#6F1F46;stroke-width:1.0656;stroke-linecap:round;stroke-linejoin:round;stroke-miterlimit:10;" d="
			M19.669,46.022L19.46,19.426h16.661v26.426c0,4.262,0,8.311-0.014,12.474c-0.003,0.954-0.153,2.024-0.892,2.628
			c-0.568,0.464-1.356,0.943-2.089,0.976c-2.818,0.125-5.633-0.03-8.454-0.05c-6.24-0.044-11.355,0.169-18.282-0.349
			c-1.077-0.081-2.169-0.767-2.866-1.593c-0.843-0.998-0.842-2.649-0.798-3.955c0.08-2.366,0.164-4.76,0.825-7.033
			s1.969-4.448,3.998-5.667c1.067-0.641,2.294-0.994,3.534-1.102c2.611-0.226,5.3,0.661,7.262,2.398s3.171,4.297,3.264,6.916"/>
		
			<path style="fill:#5A7EAE;stroke:#6F1F46;stroke-width:1.0975;stroke-linecap:round;stroke-linejoin:round;stroke-miterlimit:10;" d="
			M59.869,46.022l0.209-26.596H43.417v26.426c0,4.262,0,8.311,0.014,12.474c0.003,0.954,0.153,2.024,0.892,2.628
			c0.568,0.464,1.356,0.943,2.089,0.976c2.818,0.125,5.633-0.03,8.454-0.05c6.24-0.044,11.355,0.169,18.282-0.349
			c1.077-0.081,2.169-0.767,2.866-1.593c0.843-0.998,0.842-2.649,0.798-3.955c-0.08-2.366-0.164-4.76-0.825-7.033
			s-1.969-4.448-3.998-5.667c-1.067-0.641-2.294-0.994-3.534-1.102c-2.611-0.226-5.3,0.661-7.262,2.398
			c-1.962,1.736-3.171,4.297-3.264,6.916"/>
		<path style="fill:#9E366C;stroke:#6F1F46;stroke-width:0.9321;stroke-miterlimit:10;" d="M36.256,46.103V31.872h3.472V18H19.256
			L19.4,44.458c0.005,0.921,0.753,1.664,1.674,1.663L36.256,46.103z"/>
		<path style="fill:#9E366C;stroke:#6F1F46;stroke-width:0.9321;stroke-miterlimit:10;" d="M43.399,46.103V31.872h-3.472V18H60.4
			l-0.144,26.458c-0.005,0.921-0.753,1.664-1.674,1.663L43.399,46.103z"/>
		<path style="fill:#9E366C;stroke:#6F1F46;stroke-width:0.9321;stroke-miterlimit:10;" d="M20.042,41.409"/>
		
			<path style="fill:none;stroke:#6F1F46;stroke-width:1.1058;stroke-linecap:round;stroke-linejoin:round;stroke-miterlimit:10;" d="
			M27.082,18.486c-1.161,3.134-4.163,5.506-7.481,5.91"/>
		
			<path style="fill:none;stroke:#6F1F46;stroke-width:1.1058;stroke-linecap:round;stroke-linejoin:round;stroke-miterlimit:10;" d="
			M52.313,18.486c1.161,3.134,4.163,5.506,7.481,5.91"/>
		<line style="fill:none;" x1="39.941" y1="18" x2="39.727" y2="18"/>
		<line style="fill:none;" x1="39.941" y1="31.872" x2="39.727" y2="31.872"/>
		<path style="fill:#5A7EAE;stroke:#6F1F46;stroke-width:0.8133;stroke-miterlimit:10;" d="M19.46,39.369"/>
		
			<path style="fill:#568C6D;stroke:#6F1F46;stroke-width:1.0656;stroke-linecap:round;stroke-linejoin:round;stroke-miterlimit:10;" d="
			M6.827,44.494c-0.211-0.55-0.168-1.203,0.159-1.693c0.327-0.49,0.943-0.785,1.523-0.686s1.076,0.617,1.106,1.205
			c0.002-1.01,0.888-1.939,1.898-1.987c1.009-0.048,1.98,0.791,2.078,1.797"/>
	</g>
</g>
</svg>
