<?xml version="1.0" encoding="iso-8859-1"?>
<!-- Generator: Adobe Illustrator 27.8.1, SVG Export Plug-In . SVG Version: 6.00 Build 0)  -->
<svg version="1.1" xmlns="http://www.w3.org/2000/svg" xmlns:xlink="http://www.w3.org/1999/xlink" x="0px" y="0px"
	 viewBox="0 0 80 80" style="enable-background:new 0 0 80 80;" xml:space="preserve">
<g id="Legs">
</g>
<g id="Laag_1">
</g>
<g id="Socks">
</g>
<g id="Shoes">
</g>
<g id="left_arm">
	<g>
		
			<path style="fill:#FDFBD2;stroke:#6F1F46;stroke-width:0.6289;stroke-linecap:round;stroke-linejoin:round;stroke-miterlimit:10;" d="
			M39.13,50.14"/>
		
			<path style="fill:#FDFBD2;stroke:#6F1F46;stroke-width:0.6289;stroke-linecap:round;stroke-linejoin:round;stroke-miterlimit:10;" d="
			M43.858,50.14"/>
		
			<path style="fill:#FDFBD2;stroke:#6F1F46;stroke-width:1.0877;stroke-linecap:round;stroke-linejoin:round;stroke-miterlimit:10;" d="
			M61.997,15.565l-15.163-0.068c0,4.051-3.284,7.334-7.334,7.334s-7.334-3.284-7.334-7.334H17.623c-1.691,0-3.162,1.16-3.557,2.804
			L3,64.422h14.884l5.614-27.587v27.668h33.004V36.835l5.508,27.377L77,64.321L65.53,18.337
			C65.125,16.714,63.67,15.573,61.997,15.565z"/>
		
			<path style="fill:#FDFBD2;stroke:#6F1F46;stroke-width:0.6289;stroke-linecap:round;stroke-linejoin:round;stroke-miterlimit:10;" d="
			M50.169,52.761c-0.035-0.221,0.033-0.459,0.192-0.615c0.16-0.156,0.412-0.217,0.619-0.134s0.351,0.314,0.315,0.534
			c0.08-0.375,0.482-0.649,0.861-0.588c0.378,0.062,0.672,0.45,0.63,0.83"/>
		
			<path style="fill:#FDFBD2;stroke:#6F1F46;stroke-width:0.6289;stroke-linecap:round;stroke-linejoin:round;stroke-miterlimit:10;" d="
			M34.178,32.439c0.107-0.273,0.024-0.608-0.197-0.8c-0.221-0.192-0.565-0.227-0.82-0.083c-0.062-0.229-0.316-0.386-0.549-0.341
			c-0.232,0.046-0.408,0.288-0.379,0.523c-0.078-0.227-0.356-0.361-0.582-0.28c-0.226,0.081-0.356,0.361-0.273,0.585
			c-0.073-0.199-0.316-0.318-0.518-0.252c-0.202,0.066-0.329,0.305-0.271,0.509"/>
		
			<path style="fill:#FDFBD2;stroke:#6F1F46;stroke-width:0.6289;stroke-linecap:round;stroke-linejoin:round;stroke-miterlimit:10;" d="
			M18.965,31.437c-0.063-0.286-0.318-0.519-0.608-0.556c-0.29-0.037-0.596,0.125-0.728,0.386c-0.179-0.155-0.478-0.145-0.646,0.022
			c-0.168,0.167-0.179,0.466-0.025,0.646c-0.191-0.145-0.497-0.102-0.639,0.09c-0.143,0.192-0.096,0.498,0.098,0.638
			c-0.171-0.125-0.44-0.089-0.571,0.078c-0.131,0.167-0.105,0.436,0.057,0.574"/>
		
			<path style="fill:#FDFBD2;stroke:#6F1F46;stroke-width:0.6289;stroke-linecap:round;stroke-linejoin:round;stroke-miterlimit:10;" d="
			M25.059,23.32c0.107-0.273,0.024-0.608-0.197-0.8s-0.565-0.227-0.82-0.083c-0.062-0.229-0.316-0.386-0.549-0.341
			c-0.232,0.046-0.408,0.288-0.379,0.523c-0.078-0.227-0.356-0.361-0.582-0.28c-0.226,0.081-0.356,0.361-0.273,0.585
			c-0.073-0.199-0.316-0.318-0.518-0.252c-0.202,0.066-0.329,0.305-0.271,0.509"/>
		
			<path style="fill:#FDFBD2;stroke:#6F1F46;stroke-width:0.6289;stroke-linecap:round;stroke-linejoin:round;stroke-miterlimit:10;" d="
			M39.953,41.406c-0.035-0.221,0.033-0.459,0.192-0.615c0.16-0.156,0.412-0.217,0.619-0.134s0.351,0.314,0.315,0.534
			c0.08-0.375,0.482-0.649,0.861-0.588c0.378,0.062,0.672,0.45,0.63,0.83"/>
		
			<path style="fill:#FDFBD2;stroke:#6F1F46;stroke-width:0.6289;stroke-linecap:round;stroke-linejoin:round;stroke-miterlimit:10;" d="
			M46.451,34.908c-0.035-0.221,0.033-0.459,0.192-0.615s0.412-0.217,0.619-0.134c0.207,0.083,0.351,0.314,0.315,0.534
			c0.08-0.375,0.482-0.649,0.861-0.588c0.378,0.062,0.672,0.45,0.63,0.83"/>
		
			<path style="fill:#FDFBD2;stroke:#6F1F46;stroke-width:0.6289;stroke-linecap:round;stroke-linejoin:round;stroke-miterlimit:10;" d="
			M33.025,44.912c0.107-0.273,0.024-0.608-0.197-0.8c-0.221-0.192-0.565-0.227-0.82-0.083c-0.062-0.229-0.316-0.386-0.549-0.341
			c-0.232,0.046-0.408,0.288-0.379,0.523c-0.078-0.227-0.356-0.361-0.582-0.28c-0.226,0.081-0.356,0.361-0.273,0.585
			c-0.073-0.199-0.316-0.318-0.518-0.252s-0.329,0.305-0.271,0.509"/>
		
			<path style="fill:#FDFBD2;stroke:#6F1F46;stroke-width:0.6289;stroke-linecap:round;stroke-linejoin:round;stroke-miterlimit:10;" d="
			M35.865,52.412c-0.035-0.221,0.033-0.459,0.192-0.615c0.16-0.156,0.412-0.217,0.619-0.134s0.351,0.314,0.315,0.534
			c0.08-0.375,0.482-0.649,0.861-0.588c0.378,0.062,0.672,0.45,0.63,0.83"/>
		
			<path style="fill:#FDFBD2;stroke:#6F1F46;stroke-width:0.6289;stroke-linecap:round;stroke-linejoin:round;stroke-miterlimit:10;" d="
			M13.102,44.236c-0.211-0.074-0.389-0.247-0.45-0.462c-0.061-0.215,0.005-0.465,0.176-0.609c0.171-0.143,0.443-0.159,0.62-0.023
			c-0.292-0.249-0.342-0.733-0.108-1.037c0.234-0.303,0.715-0.378,1.03-0.159"/>
		
			<path style="fill:#FDFBD2;stroke:#6F1F46;stroke-width:0.6289;stroke-linecap:round;stroke-linejoin:round;stroke-miterlimit:10;" d="
			M60.436,26.327c0.107-0.273,0.024-0.608-0.197-0.8s-0.565-0.227-0.82-0.083c-0.062-0.229-0.316-0.386-0.549-0.341
			c-0.232,0.046-0.408,0.288-0.379,0.523c-0.078-0.227-0.356-0.361-0.582-0.28c-0.226,0.081-0.356,0.361-0.273,0.585
			c-0.073-0.199-0.316-0.318-0.518-0.252c-0.202,0.066-0.329,0.305-0.271,0.509"/>
		
			<path style="fill:#FDFBD2;stroke:#6F1F46;stroke-width:0.6289;stroke-linecap:round;stroke-linejoin:round;stroke-miterlimit:10;" d="
			M49.955,46.242c0.107-0.273,0.024-0.608-0.197-0.8c-0.221-0.192-0.565-0.227-0.82-0.083c-0.062-0.229-0.316-0.386-0.549-0.341
			c-0.232,0.046-0.408,0.288-0.379,0.523c-0.078-0.227-0.356-0.361-0.582-0.28c-0.226,0.081-0.356,0.361-0.273,0.585
			c-0.073-0.199-0.316-0.318-0.518-0.252c-0.202,0.066-0.329,0.305-0.271,0.509"/>
		
			<path style="fill:#FDFBD2;stroke:#6F1F46;stroke-width:0.6289;stroke-linecap:round;stroke-linejoin:round;stroke-miterlimit:10;" d="
			M63.358,41.488c0.15-0.165,0.379-0.261,0.601-0.234c0.222,0.028,0.427,0.186,0.491,0.4s-0.026,0.47-0.221,0.58
			c0.343-0.171,0.808-0.028,0.996,0.306s0.068,0.806-0.256,1.01"/>
		
			<path style="fill:#FDFBD2;stroke:#6F1F46;stroke-width:0.6289;stroke-linecap:round;stroke-linejoin:round;stroke-miterlimit:10;" d="
			M62.246,34.202c0.122-0.187,0.333-0.319,0.556-0.327c0.223-0.008,0.451,0.115,0.549,0.316c0.098,0.201,0.049,0.468-0.125,0.608
			c0.311-0.224,0.793-0.157,1.032,0.142c0.239,0.3,0.196,0.785-0.091,1.038"/>
	</g>
</g>
</svg>
