<?xml version="1.0" encoding="iso-8859-1"?>
<!-- Generator: Adobe Illustrator 27.8.1, SVG Export Plug-In . SVG Version: 6.00 Build 0)  -->
<svg version="1.1" xmlns="http://www.w3.org/2000/svg" xmlns:xlink="http://www.w3.org/1999/xlink" x="0px" y="0px"
	 viewBox="0 0 80 80" style="enable-background:new 0 0 80 80;" xml:space="preserve">
<g id="Laag_1">
</g>
<g id="left_arm">
	<g>
		
			<rect x="22.924" y="17.747" style="fill:#568C6D;stroke:#6F1F46;stroke-width:0.9076;stroke-linecap:round;stroke-linejoin:round;stroke-miterlimit:10;" width="13.25" height="16.517"/>
		
			<rect x="43.435" y="17.747" style="fill:#5A7EAE;stroke:#6F1F46;stroke-width:0.9983;stroke-linecap:round;stroke-linejoin:round;stroke-miterlimit:10;" width="13.25" height="16.517"/>
		
			<path style="fill:#FDFBD2;stroke:#6F1F46;stroke-width:0.9076;stroke-linecap:round;stroke-linejoin:round;stroke-miterlimit:10;" d="
			M60.161,41.462"/>
		
			<path style="fill:#FDFBD2;stroke:#6F1F46;stroke-width:0.9076;stroke-linecap:round;stroke-linejoin:round;stroke-miterlimit:10;" d="
			M50.803,39.207"/>
		
			<path style="fill:#F0F0F0;stroke:#6F1F46;stroke-width:0.9076;stroke-linecap:round;stroke-linejoin:round;stroke-miterlimit:10;" d="
			M36.901,30.821c0,0-10.036,2.666-14.67-2.367v13.733h14.67V30.821z"/>
		
			<line style="fill:none;stroke:#6F1F46;stroke-width:0.9076;stroke-linecap:round;stroke-linejoin:round;stroke-miterlimit:10;" x1="24.708" y1="30.751" x2="24.708" y2="41.948"/>
		
			<line style="fill:none;stroke:#6F1F46;stroke-width:0.9076;stroke-linecap:round;stroke-linejoin:round;stroke-miterlimit:10;" x1="27.986" y1="31.421" x2="27.986" y2="41.976"/>
		
			<path style="fill:none;stroke:#6F1F46;stroke-width:0.9076;stroke-linecap:round;stroke-linejoin:round;stroke-miterlimit:10;" d="
			M31.265,41.834v-9.927V41.834z"/>
		
			<line style="fill:none;stroke:#6F1F46;stroke-width:0.9076;stroke-linecap:round;stroke-linejoin:round;stroke-miterlimit:10;" x1="34.543" y1="31.481" x2="34.543" y2="42.068"/>
		
			<path style="fill:#F0F0F0;stroke:#6F1F46;stroke-width:0.9076;stroke-linecap:round;stroke-linejoin:round;stroke-miterlimit:10;" d="
			M42.942,30.821c0,0,10.036,2.666,14.67-2.367v13.733h-14.67V30.821z"/>
		
			<line style="fill:none;stroke:#6F1F46;stroke-width:0.9076;stroke-linecap:round;stroke-linejoin:round;stroke-miterlimit:10;" x1="55.135" y1="30.751" x2="55.135" y2="41.948"/>
		
			<line style="fill:none;stroke:#6F1F46;stroke-width:0.9076;stroke-linecap:round;stroke-linejoin:round;stroke-miterlimit:10;" x1="51.857" y1="31.421" x2="51.857" y2="41.976"/>
		
			<path style="fill:none;stroke:#6F1F46;stroke-width:0.9076;stroke-linecap:round;stroke-linejoin:round;stroke-miterlimit:10;" d="
			M48.579,41.834v-9.927V41.834z"/>
		
			<line style="fill:none;stroke:#6F1F46;stroke-width:0.9076;stroke-linecap:round;stroke-linejoin:round;stroke-miterlimit:10;" x1="45.732" y1="31.481" x2="45.732" y2="42.068"/>
		<path style="fill:#E1A946;stroke:#6F1F46;stroke-width:0.9076;stroke-miterlimit:10;" d="M74.09,58.588
			c-0.086,0.982-0.464,1.979-1.223,2.608c-0.884,0.733-2.11,0.853-3.256,0.919c-7.026,0.403-14.102-0.08-21.008-1.435
			c-1.759-0.345-3.577-0.779-4.962-1.917c-0.662-0.544-1.209-1.251-1.462-2.07c-0.253-0.819-0.186-1.753,0.275-2.476
			c0.452-0.708,1.234-1.154,2.046-1.368c0.812-0.214,1.663-0.221,2.503-0.221c7.954,0.002,15.908,0.541,23.79,1.612
			c0.924,0.126,2.381,0.292,2.931,1.177C74.206,56.194,74.165,57.722,74.09,58.588z"/>
		
			<path style="fill:#E1A946;stroke:#6F1F46;stroke-width:0.9076;stroke-linecap:round;stroke-linejoin:round;stroke-miterlimit:10;" d="
			M56.981,48.26c-0.427-2.513,1.166-5.252,3.186-6.806c2.02-1.555,5.031-1.769,7.478-1.052c2.447,0.716,4.52,2.412,5.714,4.665
			c1.195,2.252,1.533,7.219,1.106,9.732c-0.166,0.98-0.487,2.007-1.263,2.628c-0.684,0.547-1.599,0.683-2.468,0.786
			c-7.468,0.884-15.061,0.716-22.483-0.497c-1.339-0.219-2.738-0.501-3.78-1.371c-0.994-0.83-1.531-2.106-1.72-3.387
			c-0.332-2.249-0.06-11.446,0.046-13.717c2.499-1.134,7.335-1.582,8.917-1.582c1.264,0,4.776,0,6.041,0
			c1.151,0,2.445,0.575,2.405,3.803"/>
		<path style="fill:#FFFFFF;stroke:#6F1F46;stroke-width:0.9076;stroke-miterlimit:10;" d="M62.323,43.704
			c0.355,0.168,0.73,0.412,0.804,0.797c0.094,0.491-0.382,0.937-0.873,1.028c-0.492,0.091-0.991-0.061-1.483-0.154
			c-1.442-0.275-2.975-0.041-4.269,0.651c-0.337,0.18-0.662,0.392-1.029,0.502c-0.909,0.273-1.885-0.536-1.171-1.381
			c0.59-0.699,1.649-1.252,2.488-1.579C58.553,42.883,60.602,42.89,62.323,43.704z"/>
		<path style="fill:#FFFFFF;stroke:#6F1F46;stroke-width:0.9076;stroke-miterlimit:10;" d="M61.39,41.785
			c0.355,0.168,0.73,0.412,0.804,0.797c0.094,0.491-0.382,0.937-0.873,1.028s-0.991-0.061-1.483-0.154
			c-1.442-0.275-2.975-0.041-4.269,0.651c-0.337,0.18-0.662,0.392-1.029,0.502c-0.909,0.273-1.885-0.536-1.171-1.381
			c0.59-0.699,1.649-1.252,2.488-1.579C57.621,40.964,59.67,40.971,61.39,41.785z"/>
		
			<path style="fill:#E1A946;stroke:#6F1F46;stroke-width:0.9076;stroke-linecap:round;stroke-linejoin:round;stroke-miterlimit:10;" d="
			M56.981,48.26c-0.427-2.513,1.166-5.252,3.186-6.806c2.02-1.555,5.031-1.769,7.478-1.052c2.447,0.716,4.52,2.412,5.714,4.665
			c1.195,2.252,1.533,7.219,1.106,9.732c-0.166,0.98-0.487,2.007-1.263,2.628c-0.684,0.547-1.599,0.683-2.468,0.786
			c-7.468,0.884-15.061,0.716-22.483-0.497c-1.339-0.219-2.738-0.501-3.78-1.371"/>
		<path style="fill:#E1A946;stroke:#6F1F46;stroke-width:0.9076;stroke-miterlimit:10;" d="M5.91,58.588
			c0.086,0.982,0.464,1.979,1.223,2.608c0.884,0.733,2.11,0.853,3.256,0.919c7.026,0.403,14.102-0.08,21.008-1.435
			c1.759-0.345,3.577-0.779,4.962-1.917c0.662-0.544,1.209-1.251,1.462-2.07c0.253-0.819,0.186-1.753-0.275-2.476
			c-0.452-0.708-1.234-1.154-2.046-1.368c-0.812-0.214-1.663-0.221-2.503-0.221c-7.954,0.002-15.908,0.541-23.79,1.612
			c-0.924,0.126-2.381,0.292-2.931,1.177C5.794,56.194,5.835,57.722,5.91,58.588z"/>
		
			<path style="fill:#E1A946;stroke:#6F1F46;stroke-width:0.9076;stroke-linecap:round;stroke-linejoin:round;stroke-miterlimit:10;" d="
			M23.019,48.26c0.427-2.513-1.166-5.252-3.186-6.806c-2.02-1.555-5.031-1.769-7.478-1.052s-4.52,2.412-5.714,4.665
			c-1.195,2.252-1.533,7.219-1.106,9.732c0.166,0.98,0.487,2.007,1.263,2.628c0.684,0.547,1.599,0.683,2.468,0.786
			c7.468,0.884,15.061,0.716,22.483-0.497c1.339-0.219,2.738-0.501,3.78-1.371c0.994-0.83,1.531-2.106,1.72-3.387
			c0.332-2.249,0.06-11.446-0.046-13.717c-2.499-1.134-7.335-1.582-8.917-1.582c-1.264,0-4.776,0-6.041,0
			c-1.151,0-2.445,0.575-2.405,3.803"/>
		<path style="fill:#FFFFFF;stroke:#6F1F46;stroke-width:0.9076;stroke-miterlimit:10;" d="M17.677,43.704
			c-0.355,0.168-0.73,0.412-0.804,0.797c-0.094,0.491,0.382,0.937,0.873,1.028s0.991-0.061,1.483-0.154
			c1.442-0.275,2.975-0.041,4.269,0.651c0.337,0.18,0.662,0.392,1.029,0.502c0.909,0.273,1.885-0.536,1.171-1.381
			c-0.59-0.699-1.649-1.252-2.488-1.579C21.447,42.883,19.398,42.89,17.677,43.704z"/>
		<path style="fill:#FFFFFF;stroke:#6F1F46;stroke-width:0.9076;stroke-miterlimit:10;" d="M18.61,41.785
			c-0.355,0.168-0.73,0.412-0.804,0.797c-0.094,0.491,0.382,0.937,0.873,1.028c0.492,0.091,0.991-0.061,1.483-0.154
			c1.442-0.275,2.975-0.041,4.269,0.651c0.337,0.18,0.662,0.392,1.029,0.502c0.909,0.273,1.885-0.536,1.171-1.381
			c-0.59-0.699-1.649-1.252-2.488-1.579C22.379,40.964,20.33,40.971,18.61,41.785z"/>
		
			<path style="fill:#E1A946;stroke:#6F1F46;stroke-width:0.9076;stroke-linecap:round;stroke-linejoin:round;stroke-miterlimit:10;" d="
			M23.019,48.26c0.427-2.513-1.166-5.252-3.186-6.806c-2.02-1.555-5.031-1.769-7.478-1.052s-4.52,2.412-5.714,4.665
			c-1.195,2.252-1.533,7.219-1.106,9.732c0.166,0.98,0.487,2.007,1.263,2.628c0.684,0.547,1.599,0.683,2.468,0.786
			c7.468,0.884,15.061,0.716,22.483-0.497c1.339-0.219,2.738-0.501,3.78-1.371"/>
		
			<path style="fill:#568C6D;stroke:#6F1F46;stroke-width:0.9076;stroke-linecap:round;stroke-linejoin:round;stroke-miterlimit:10;" d="
			M23.622,26.034c-0.498,0.059-1.028-0.114-1.364-0.487s-0.45-0.943-0.246-1.401c0.204-0.458,0.735-0.758,1.227-0.659
			c-0.834-0.214-1.413-1.141-1.241-1.984c0.172-0.843,1.069-1.468,1.92-1.338"/>
	</g>
</g>
</svg>
