<?xml version="1.0" encoding="iso-8859-1"?>
<!-- Generator: Adobe Illustrator 27.8.1, SVG Export Plug-In . SVG Version: 6.00 Build 0)  -->
<svg version="1.1" xmlns="http://www.w3.org/2000/svg" xmlns:xlink="http://www.w3.org/1999/xlink" x="0px" y="0px"
	 viewBox="0 0 80 80" style="enable-background:new 0 0 80 80;" xml:space="preserve">
<g id="Laag_1">
</g>
<g id="left_arm">
	<g>
		
			<line style="fill:none;stroke:#FDFBD2;stroke-width:0.6369;stroke-miterlimit:10;" x1="35.196" y1="23.029" x2="35.196" y2="33.738"/>
		
			<path style="fill:#568C6D;stroke:#6F1F46;stroke-width:1.0615;stroke-linecap:round;stroke-linejoin:round;stroke-miterlimit:10;" d="
			M19.764,46.164l-0.208-26.495h16.598v26.326c0,4.246,0,8.28-0.014,12.426c-0.003,0.951-0.153,2.016-0.888,2.618
			c-0.565,0.462-1.351,0.94-2.081,0.972c-2.807,0.125-5.612-0.03-8.422-0.05c-6.217-0.044-11.312,0.168-18.213-0.347
			c-1.073-0.08-2.161-0.764-2.855-1.587c-0.84-0.995-0.839-2.639-0.795-3.94c0.08-2.357,0.164-4.742,0.822-7.007
			s1.962-4.432,3.983-5.646c1.063-0.638,2.285-0.99,3.52-1.097c2.601-0.226,5.279,0.659,7.234,2.389
			c1.955,1.73,3.159,4.281,3.252,6.89"/>
		
			<path style="fill:#5A7EAE;stroke:#6F1F46;stroke-width:1.0933;stroke-linecap:round;stroke-linejoin:round;stroke-miterlimit:10;" d="
			M60.236,45.717l0.208-26.495H43.847v26.326c0,4.246,0,8.28,0.014,12.426c0.003,0.951,0.153,2.016,0.888,2.618
			c0.565,0.462,1.351,0.94,2.081,0.972c2.807,0.125,5.612-0.03,8.422-0.05c6.217-0.044,11.312,0.168,18.213-0.347
			c1.073-0.08,2.161-0.764,2.855-1.587c0.84-0.995,0.839-2.639,0.795-3.94c-0.08-2.357-0.164-4.742-0.822-7.007
			c-0.658-2.264-1.962-4.432-3.983-5.646c-1.063-0.638-2.285-0.99-3.52-1.097c-2.601-0.226-5.279,0.659-7.234,2.389
			s-3.159,4.281-3.252,6.89"/>
		
			<polygon style="fill:#E1A946;stroke:#6F1F46;stroke-width:1.0615;stroke-linecap:round;stroke-linejoin:round;stroke-miterlimit:10;" points="
			19.556,17.94 60.488,17.94 60.488,40.124 43.847,40.124 43.847,31.403 36.153,31.403 36.153,40.558 19.72,40.558 		"/>
		
			<line style="fill:none;stroke:#6F1F46;stroke-width:1.0615;stroke-linecap:round;stroke-linejoin:round;stroke-miterlimit:10;" x1="40.064" y1="23.852" x2="40.064" y2="31.07"/>
		
			<circle style="fill:#FFFFFF;stroke:#6F1F46;stroke-width:0.7582;stroke-linecap:round;stroke-linejoin:round;stroke-miterlimit:10;" cx="37.729" cy="27.461" r="1.592"/>
		
			<circle style="fill:#FFFFFF;stroke:#6F1F46;stroke-width:0.7582;stroke-linecap:round;stroke-linejoin:round;stroke-miterlimit:10;" cx="42.4" cy="27.461" r="1.592"/>
		
			<path style="fill:#E1A946;stroke:#6F1F46;stroke-width:1.1005;stroke-linecap:round;stroke-linejoin:round;stroke-miterlimit:10;" d="
			M31.89,18.433c-1.862,5.026-6.676,8.828-11.996,9.476"/>
		
			<path style="fill:#E1A946;stroke:#6F1F46;stroke-width:1.0615;stroke-linecap:round;stroke-linejoin:round;stroke-miterlimit:10;" d="
			M48.238,18.295c1.889,5.099,6.773,8.957,12.171,9.614"/>
		<path style="fill:#5A7EAE;stroke:#6F1F46;stroke-width:0.8102;stroke-miterlimit:10;" d="M19.556,39.089"/>
		
			<path style="fill:#568C6D;stroke:#6F1F46;stroke-width:1.0615;stroke-linecap:round;stroke-linejoin:round;stroke-miterlimit:10;" d="
			M34.647,52.848c0.608,0.301,1.4,0.178,1.888-0.293c0.488-0.472,0.638-1.259,0.357-1.877c0.54-0.098,0.956-0.653,0.897-1.199
			c-0.059-0.546-0.583-1-1.132-0.981c0.539-0.134,0.904-0.751,0.764-1.288c-0.141-0.537-0.761-0.895-1.297-0.748
			c0.475-0.128,0.798-0.667,0.687-1.146c-0.111-0.48-0.637-0.821-1.121-0.728"/>
		
			<path style="fill:#568C6D;stroke:#6F1F46;stroke-width:1.0615;stroke-linecap:round;stroke-linejoin:round;stroke-miterlimit:10;" d="
			M6.97,44.642c-0.211-0.547-0.167-1.198,0.159-1.686s0.939-0.783,1.517-0.683c0.578,0.099,1.072,0.614,1.101,1.2
			c0.002-1.007,0.885-1.931,1.89-1.979c1.005-0.048,1.973,0.788,2.07,1.79"/>
	</g>
</g>
</svg>
