<?xml version="1.0" encoding="iso-8859-1"?>
<!-- Generator: Adobe Illustrator 27.8.1, SVG Export Plug-In . SVG Version: 6.00 Build 0)  -->
<svg version="1.1" xmlns="http://www.w3.org/2000/svg" xmlns:xlink="http://www.w3.org/1999/xlink" x="0px" y="0px"
	 viewBox="0 0 80 80" style="enable-background:new 0 0 80 80;" xml:space="preserve">
<g id="Laag_1">
</g>
<g id="left_arm">
	<g>
		<path style="fill:none;stroke:#FDFBD2;stroke-width:0.1197;stroke-miterlimit:10;" d="M39.164,48.054"/>
		<path style="fill:none;stroke:#FDFBD2;stroke-width:0.1197;stroke-miterlimit:10;" d="M43.711,48.054"/>
		
			<path style="fill:#E1A946;stroke:#6F1F46;stroke-width:1.0082;stroke-linecap:round;stroke-linejoin:round;stroke-miterlimit:10;" d="
			M55.873,16.431h-9.299c0,3.896-3.158,7.055-7.055,7.055s-7.055-3.158-7.055-7.055h-8.337L8.141,22.077l3.429,12.878l12.557-4.452
			v33.066h31.746V30.503l12.557,4.452l3.429-12.878L55.873,16.431z"/>
		<circle style="fill:#5A7EAE;stroke:#6F1F46;stroke-width:0.1994;stroke-miterlimit:10;" cx="40.406" cy="38.917" r="10.295"/>
		<g>
			<path style="fill:#FDFBD2;" d="M40.631,28.775c5.474-0.177,10.11,4.869,9.961,10.257c0.047,5.422-4.828,10.216-10.241,10.043
				c5.348,0.009,10.131-4.676,10.042-10.046C50.581,33.698,46.033,28.753,40.631,28.775L40.631,28.775z"/>
		</g>
		<path style="fill:#568C6D;stroke:#6F1F46;stroke-width:0.1994;stroke-miterlimit:10;" d="M47.376,45.853"/>
		<g>
			<path style="fill:none;" d="M37.358,33.774"/>
		</g>
		<path style="fill:#568C6D;stroke:#6F1F46;stroke-width:0.1994;stroke-miterlimit:10;" d="M37.946,43.211
			c-0.119,0.092-0.195,0.217-0.241,0.358c-0.186,0.566,0.172,1.168,0.753,1.297c0.065,0.014,0.13,0.029,0.194,0.043
			c0.341,0.078,0.689,0.18,0.958,0.404c0.269,0.224,0.438,0.601,0.323,0.932c-0.093,0.268-0.355,0.484-0.338,0.766
			c0.018,0.305,0.347,0.484,0.637,0.582c0.961,0.321,3.148,0.775,3.719-0.421c0.229-0.479,0.012-1.051-0.276-1.496
			c-0.289-0.445-0.659-0.862-0.768-1.381c-0.12-0.571,0.097-1.151,0.277-1.706c0.179-0.555,0.319-1.181,0.059-1.704
			c-0.284-0.571-1.029-0.841-1.634-0.638s-1.028,0.817-1.065,1.454c-0.026,0.455,0.098,0.985-0.22,1.312
			c-0.289,0.297-0.775,0.237-1.179,0.14S38.275,42.957,37.946,43.211z"/>
		<g>
			<path style="fill:#FDFBD2;" d="M43.833,47.178c0.345-1.189-1.19-1.807-1.242-2.973c-0.142-1.151,0.893-2.118,0.578-3.232
				c0,0,0.005-0.003,0.005-0.003c0.465,1.061-0.537,2.149-0.389,3.217C42.828,45.228,44.372,46.063,43.833,47.178L43.833,47.178z"/>
		</g>
		
			<path style="fill:none;stroke:#6F1F46;stroke-width:0.1994;stroke-linecap:round;stroke-linejoin:round;stroke-miterlimit:10;" d="
			M40.524,44.206c-0.011-0.067,0.01-0.14,0.059-0.188c0.049-0.048,0.126-0.066,0.189-0.041c0.063,0.025,0.107,0.096,0.096,0.163
			c0.024-0.114,0.147-0.198,0.263-0.179c0.115,0.019,0.205,0.137,0.192,0.254"/>
		
			<path style="fill:none;stroke:#6F1F46;stroke-width:0.1994;stroke-linecap:round;stroke-linejoin:round;stroke-miterlimit:10;" d="
			M41.893,46.609c0.07,0.082,0.141,0.164,0.211,0.246"/>
		
			<path style="fill:none;stroke:#6F1F46;stroke-width:0.1994;stroke-linecap:round;stroke-linejoin:round;stroke-miterlimit:10;" d="
			M42.073,46.35c0.07,0.082,0.141,0.164,0.211,0.246"/>
		
			<path style="fill:none;stroke:#6F1F46;stroke-width:0.1994;stroke-linecap:round;stroke-linejoin:round;stroke-miterlimit:10;" d="
			M43.214,38.283c0.095,0.186,0.303,0.307,0.511,0.298c0.208-0.009,0.405-0.148,0.484-0.342"/>
		<circle style="fill:#FFFFFF;stroke:#6F1F46;stroke-width:0.1596;stroke-miterlimit:10;" cx="44.735" cy="36.439" r="1.279"/>
		<circle style="fill:#6F1F46;" cx="44.856" cy="36.864" r="0.79"/>
		<circle style="fill:#FFFFFF;" cx="44.904" cy="36.807" r="0.119"/>
		<circle style="fill:#FFFFFF;" cx="45.182" cy="37.191" r="0.186"/>
		<circle style="fill:#FFFFFF;" cx="44.722" cy="37.176" r="0.132"/>
		<path style="fill:#5A7EAE;stroke:#6F1F46;stroke-width:0.1596;stroke-miterlimit:10;" d="M46.011,36.421h-2.558
			c0.006-0.701,0.576-1.269,1.279-1.269C45.435,35.153,46.006,35.72,46.011,36.421z"/>
		<circle style="fill:#FFFFFF;stroke:#6F1F46;stroke-width:0.1596;stroke-miterlimit:10;" cx="42.628" cy="36.439" r="1.279"/>
		<circle style="fill:#6F1F46;" cx="42.683" cy="36.864" r="0.79"/>
		<circle style="fill:#FFFFFF;" cx="42.731" cy="36.807" r="0.119"/>
		<circle style="fill:#FFFFFF;" cx="43.008" cy="37.191" r="0.186"/>
		<circle style="fill:#FFFFFF;" cx="42.549" cy="37.176" r="0.132"/>
		<path style="fill:#5A7EAE;stroke:#6F1F46;stroke-width:0.1596;stroke-miterlimit:10;" d="M43.908,36.421h-2.558
			c0.006-0.701,0.576-1.269,1.279-1.269C43.332,35.153,43.903,35.72,43.908,36.421z"/>
		<path style="fill:#568C6D;stroke:#6F1F46;stroke-width:0.1994;stroke-miterlimit:10;" d="M32.989,46.087
			c-4.021-4.021-4.021-10.539,0-14.56c0.898-0.898,1.971-1.67,3.165-2.102c0.721-0.261,1.536-0.402,2.244-0.107
			s1.215,1.154,0.904,1.855c-0.361,0.815-1.596,1.094-1.708,1.979c-0.058,0.455,0.224,0.873,0.433,1.281
			c0.209,0.409,0.335,0.953,0.023,1.289c-0.457,0.493-1.313,0.05-1.938,0.298c-0.647,0.256-0.777,1.12-0.675,1.808
			c0.14,0.941,0.519,1.827,0.808,2.733c0.289,0.907,0.489,1.882,0.261,2.805C36.14,44.849,34.504,46.28,32.989,46.087z"/>
		
			<path style="fill:none;stroke:#6F1F46;stroke-width:0.1994;stroke-linecap:round;stroke-linejoin:round;stroke-miterlimit:10;" d="
			M32.476,34.773c-0.011-0.067,0.01-0.14,0.059-0.188c0.049-0.048,0.126-0.066,0.189-0.041c0.063,0.025,0.107,0.096,0.096,0.163
			c0.024-0.114,0.147-0.198,0.263-0.179c0.115,0.019,0.205,0.137,0.192,0.254"/>
		
			<path style="fill:none;stroke:#6F1F46;stroke-width:0.1994;stroke-linecap:round;stroke-linejoin:round;stroke-miterlimit:10;" d="
			M36.099,32.466c-0.011-0.067,0.01-0.14,0.059-0.188c0.049-0.048,0.126-0.066,0.189-0.041c0.063,0.025,0.107,0.096,0.096,0.163
			c0.024-0.114,0.147-0.198,0.263-0.179c0.115,0.019,0.205,0.137,0.192,0.254"/>
		
			<path style="fill:none;stroke:#6F1F46;stroke-width:0.1994;stroke-linecap:round;stroke-linejoin:round;stroke-miterlimit:10;" d="
			M33.433,42.932c-0.011-0.067,0.01-0.14,0.059-0.188c0.049-0.048,0.126-0.066,0.189-0.041c0.063,0.025,0.107,0.096,0.096,0.163
			c0.024-0.114,0.147-0.198,0.263-0.179c0.115,0.019,0.205,0.137,0.192,0.254"/>
		
			<path style="fill:none;stroke:#6F1F46;stroke-width:0.1994;stroke-linecap:round;stroke-linejoin:round;stroke-miterlimit:10;" d="
			M32.589,38.794c0.07,0.082,0.141,0.164,0.211,0.246"/>
		
			<path style="fill:none;stroke:#6F1F46;stroke-width:0.1994;stroke-linecap:round;stroke-linejoin:round;stroke-miterlimit:10;" d="
			M32.769,38.535c0.07,0.082,0.141,0.164,0.211,0.246"/>
		<g>
			<path style="fill:#FDFBD2;" d="M33.03,45.976c1.561-0.093,2.846-1.339,3.202-2.786c0.405-2.103-1.142-4-1.013-6.067
				c0.046-0.547,0.374-1.098,0.915-1.263c-0.523,0.206-0.803,0.732-0.819,1.272c-0.03,2.081,1.552,3.951,1.095,6.099
				C36.044,44.74,34.585,46.04,33.03,45.976L33.03,45.976z"/>
		</g>
		<path style="fill:#568C6D;stroke:#6F1F46;stroke-width:0.1994;stroke-miterlimit:10;" d="M48.934,44.731
			c1.18-0.762,1.718-2.102,1.876-2.718c0.128-0.499,0.289-1.517,0.325-2.031c0.264-3.74-0.857-3.886-0.857-3.886
			c-0.129,1.672-1.826,1.579-2.625,1.44c-0.44-0.076-0.873,0.177-1.021,0.599c-0.229,0.652-0.023,1.551,0.219,2.246
			c0.384,1.104,0.269,2.326-0.345,3.32C45.987,44.543,46.06,46.588,48.934,44.731z"/>
		<g>
			<path style="fill:#FDFBD2;" d="M50.393,36.25c1.058,1.27,0.715,3.138,0.54,4.655c-0.26,1.549-0.917,3.236-2.405,3.969
				c0,0-0.001-0.002-0.001-0.002c2.132-1.303,2.392-4.088,2.395-6.359C50.887,37.738,50.851,36.908,50.393,36.25L50.393,36.25z"/>
		</g>
		
			<path style="fill:none;stroke:#6F1F46;stroke-width:0.1994;stroke-linecap:round;stroke-linejoin:round;stroke-miterlimit:10;" d="
			M48.243,43.368c-0.011-0.067,0.01-0.14,0.059-0.188s0.126-0.066,0.189-0.041c0.063,0.025,0.107,0.096,0.096,0.163
			c0.024-0.114,0.147-0.198,0.263-0.179c0.115,0.019,0.205,0.137,0.192,0.254"/>
		
			<path style="fill:none;stroke:#6F1F46;stroke-width:0.1994;stroke-linecap:round;stroke-linejoin:round;stroke-miterlimit:10;" d="
			M48.249,39.978c0.012-0.099,0.115-0.177,0.213-0.163c0.099,0.014,0.175,0.118,0.159,0.216c-0.009-0.102,0.085-0.2,0.187-0.195
			c0.102,0.005,0.185,0.113,0.165,0.213c-0.003-0.081,0.074-0.156,0.155-0.151c0.081,0.005,0.148,0.089,0.135,0.169"/>
	</g>
</g>
</svg>
